<svg width="10" height="32" viewBox="0 0 10 32" fill="none" xmlns="http://www.w3.org/2000/svg">
<path d="M9.00023 31.9041L0.420234 28.6641L0.420234 27.7521L9.00023 24.4881L9.00023 25.3521L6.30023 26.3481L6.30023 30.0801L9.00023 31.0881L9.00023 31.9041ZM5.64023 29.8401L5.64023 26.5881L2.43623 27.7641L1.18823 28.1961L1.18823 28.2201C1.67623 28.3721 2.09223 28.5121 2.43623 28.6401L5.64023 29.8401Z" fill="#FFFDF8"/>
<path d="M9.15623 19.8291C9.15623 21.0131 8.74823 21.9531 7.93223 22.6491C7.11623 23.3451 6.04423 23.6931 4.71623 23.6931C3.39623 23.6931 2.32023 23.3411 1.48823 22.6371C0.656234 21.9331 0.240234 20.9851 0.240234 19.7931C0.240234 18.8971 0.472234 18.1611 0.936233 17.5851C1.40023 17.0011 2.03623 16.6371 2.84423 16.4931L2.84423 17.2851C2.26823 17.4051 1.80823 17.6851 1.46423 18.1251C1.11223 18.5651 0.936233 19.1251 0.936233 19.8051C0.936234 20.7731 1.29223 21.5251 2.00423 22.0611C2.70823 22.5891 3.61223 22.8531 4.71623 22.8531C5.82023 22.8531 6.72023 22.5891 7.41623 22.0611C8.10423 21.5251 8.44823 20.7771 8.44823 19.8171C8.44823 19.0251 8.20823 18.3971 7.72823 17.9331C7.24823 17.4691 6.63223 17.2011 5.88023 17.1291L5.88023 16.3491C6.78423 16.3971 7.53223 16.6931 8.12423 17.2371C8.81223 17.8531 9.15623 18.7171 9.15623 19.8291Z" fill="#FFFDF8"/>
<path d="M9.00023 12.4852L1.14023 12.4852L1.14023 15.3892L0.420233 15.3892L0.420233 8.78924L1.14023 8.78924L1.14023 11.6812L9.00023 11.6812L9.00023 12.4852Z" fill="#FFFDF8"/>
<path d="M9.00023 4.45386L0.420233 4.45387L0.420233 3.64987L9.00023 3.64987L9.00023 4.45386Z" fill="#FFFDF8"/>
<path d="M9.00023 1.27808L0.420233 1.27808L0.420233 0.474085L9.00023 0.474084L9.00023 1.27808Z" fill="#FFFDF8"/>
</svg>
