<svg width="10" height="36" viewBox="0 0 10 36" fill="none" xmlns="http://www.w3.org/2000/svg">
<path d="M9.00023 35.4236L0.420234 32.1836L0.420234 31.2716L9.00023 28.0076L9.00023 28.8716L6.30023 29.8676L6.30023 33.5996L9.00023 34.6076L9.00023 35.4236ZM5.64023 33.3596L5.64023 30.1076L2.43623 31.2836L1.18823 31.7156L1.18823 31.7396C1.67623 31.8916 2.09223 32.0316 2.43623 32.1596L5.64023 33.3596Z" fill="#FFFDF8"/>
<path d="M9.15623 23.3486C9.15623 24.5326 8.74823 25.4726 7.93223 26.1686C7.11623 26.8646 6.04423 27.2126 4.71623 27.2126C3.39623 27.2126 2.32023 26.8606 1.48823 26.1566C0.656234 25.4526 0.240234 24.5046 0.240234 23.3126C0.240234 22.4166 0.472234 21.6806 0.936233 21.1046C1.40023 20.5206 2.03623 20.1566 2.84423 20.0126L2.84423 20.8046C2.26823 20.9246 1.80823 21.2046 1.46423 21.6446C1.11223 22.0846 0.936233 22.6446 0.936233 23.3246C0.936234 24.2926 1.29223 25.0446 2.00423 25.5806C2.70823 26.1086 3.61223 26.3726 4.71623 26.3726C5.82023 26.3726 6.72023 26.1086 7.41623 25.5806C8.10423 25.0446 8.44823 24.2966 8.44823 23.3366C8.44823 22.5446 8.20823 21.9166 7.72823 21.4526C7.24823 20.9886 6.63223 20.7206 5.88023 20.6486L5.88023 19.8686C6.78423 19.9166 7.53223 20.2126 8.12423 20.7566C8.81223 21.3726 9.15623 22.2366 9.15623 23.3486Z" fill="#FFFDF8"/>
<path d="M9.00023 16.0048L1.14023 16.0048L1.14023 18.9088L0.420233 18.9088L0.420233 12.3088L1.14023 12.3088L1.14023 15.2008L9.00023 15.2008L9.00023 16.0048Z" fill="#FFFDF8"/>
<path d="M9.00023 7.9734L0.420233 7.9734L0.420233 7.1694L9.00023 7.1694L9.00023 7.9734Z" fill="#FFFDF8"/>
<path d="M9.00023 4.79761L0.420233 4.79762L0.420233 3.99361L9.00023 3.99361L9.00023 4.79761Z" fill="#FFFDF8"/>
<path d="M9.00023 1.62183L0.420233 1.62183L0.420233 0.817833L9.00023 0.817833L9.00023 1.62183Z" fill="#FFFDF8"/>
</svg>
