<svg width="10" height="29" viewBox="0 0 10 29" fill="none" xmlns="http://www.w3.org/2000/svg">
<path d="M9.00023 28.9041L0.420234 25.6641L0.420234 24.7521L9.00023 21.4881L9.00023 22.3521L6.30023 23.3481L6.30023 27.0801L9.00023 28.0881L9.00023 28.9041ZM5.64023 26.8401L5.64023 23.5881L2.43623 24.7641L1.18823 25.1961L1.18823 25.2201C1.67623 25.3721 2.09223 25.5121 2.43623 25.6401L5.64023 26.8401Z" fill="#FFFDF8"/>
<path d="M9.15623 16.8291C9.15623 18.0131 8.74823 18.9531 7.93223 19.6491C7.11623 20.3451 6.04423 20.6931 4.71623 20.6931C3.39623 20.6931 2.32023 20.3411 1.48823 19.6371C0.656234 18.9331 0.240234 17.9851 0.240234 16.7931C0.240234 15.8971 0.472234 15.1611 0.936233 14.5851C1.40023 14.0011 2.03623 13.6371 2.84423 13.4931L2.84423 14.2851C2.26823 14.4051 1.80823 14.6851 1.46423 15.1251C1.11223 15.5651 0.936233 16.1251 0.936233 16.8051C0.936234 17.7731 1.29223 18.5251 2.00423 19.0611C2.70823 19.5891 3.61223 19.8531 4.71623 19.8531C5.82023 19.8531 6.72023 19.5891 7.41623 19.0611C8.10423 18.5251 8.44823 17.7771 8.44823 16.8171C8.44823 16.0251 8.20823 15.3971 7.72823 14.9331C7.24823 14.4691 6.63223 14.2011 5.88023 14.1291L5.88023 13.3491C6.78423 13.3971 7.53223 13.6931 8.12423 14.2371C8.81223 14.8531 9.15623 15.7171 9.15623 16.8291Z" fill="#FFFDF8"/>
<path d="M9.00023 9.48524L1.14023 9.48524L1.14023 12.3892L0.420233 12.3892L0.420233 5.78924L1.14023 5.78924L1.14023 8.68124L9.00023 8.68124L9.00023 9.48524Z" fill="#FFFDF8"/>
<path d="M9.00023 1.45386L0.420233 1.45387L0.420233 0.649866L9.00023 0.649866L9.00023 1.45386Z" fill="#FFFDF8"/>
</svg>
