<svg width="10" height="63" viewBox="0 0 10 63" fill="none" xmlns="http://www.w3.org/2000/svg">
<path d="M9.00023 62.9041L0.420234 59.6641L0.420234 58.7521L9.00023 55.4881L9.00023 56.3521L6.30023 57.3481L6.30023 61.0801L9.00023 62.0881L9.00023 62.9041ZM5.64023 60.8401L5.64023 57.5881L2.43623 58.7641L1.18823 59.1961L1.18823 59.2201C1.67623 59.3721 2.09223 59.5121 2.43623 59.6401L5.64023 60.8401Z" fill="#FFFDF8"/>
<path d="M9.00023 53.8766L0.420234 53.8766L0.420234 53.0726L8.25623 53.0726L8.25623 48.5006L9.00023 48.5006L9.00023 53.8766Z" fill="#FFFDF8"/>
<path d="M9.15623 43.7626C9.15623 44.9466 8.74823 45.8866 7.93223 46.5826C7.11623 47.2786 6.04423 47.6266 4.71623 47.6266C3.39623 47.6266 2.32023 47.2746 1.48823 46.5706C0.656234 45.8666 0.240234 44.9186 0.240234 43.7266C0.240233 42.8306 0.472233 42.0946 0.936233 41.5186C1.40023 40.9346 2.03623 40.5706 2.84423 40.4266L2.84423 41.2186C2.26823 41.3386 1.80823 41.6186 1.46423 42.0586C1.11223 42.4986 0.936233 43.0586 0.936233 43.7386C0.936233 44.7066 1.29223 45.4586 2.00423 45.9946C2.70823 46.5226 3.61223 46.7866 4.71623 46.7866C5.82023 46.7866 6.72023 46.5226 7.41623 45.9946C8.10423 45.4586 8.44823 44.7106 8.44823 43.7506C8.44823 42.9586 8.20823 42.3306 7.72823 41.8666C7.24823 41.4026 6.63223 41.1346 5.88023 41.0626L5.88023 40.2826C6.78423 40.3306 7.53223 40.6266 8.12423 41.1706C8.81223 41.7866 9.15623 42.6506 9.15623 43.7626Z" fill="#FFFDF8"/>
<path d="M9.00023 38.4196L0.420233 38.4196L0.420233 37.6156L4.12823 37.6156L4.12823 32.7556L0.420233 32.7556L0.420233 31.9516L9.00023 31.9516L9.00023 32.7556L4.80023 32.7556L4.80023 37.6156L9.00023 37.6156L9.00023 38.4196Z" fill="#FFFDF8"/>
<path d="M9.00023 29.6656L0.420233 29.6656L0.420232 23.8336L1.12823 23.8336L1.12823 28.8616L4.21223 28.8616L4.21223 24.2536L4.90823 24.2536L4.90823 28.8616L8.25623 28.8616L8.25623 23.7016L9.00023 23.7016L9.00023 29.6656Z" fill="#FFFDF8"/>
<path d="M9.00023 21.7438L0.420232 21.7438L0.420232 20.6518L7.90823 17.6878L7.90823 17.6638L0.420232 14.7718L0.420232 13.6438L9.00023 13.6438L9.00023 14.4238L1.52423 14.4238L1.52423 14.4478C1.98023 14.5998 2.36823 14.7358 2.68823 14.8558L9.00023 17.3398L9.00023 18.0478L2.68823 20.5558L1.52423 20.9758L1.52423 20.9998L9.00023 20.9998L9.00023 21.7438Z" fill="#FFFDF8"/>
<path d="M9.00023 8.94896L5.25623 8.94896L0.420232 12.045L0.420232 11.157L4.57223 8.54096L4.57223 8.51696L0.420232 5.87696L0.420232 5.01296L5.28023 8.13296L9.00023 8.13296L9.00023 8.94896Z" fill="#FFFDF8"/>
<path d="M9.00023 0.824958L0.420231 0.824959L0.420231 0.0209579L9.00023 0.0209576L9.00023 0.824958Z" fill="#FFFDF8"/>
</svg>
