<svg width="10" height="70" viewBox="0 0 10 70" fill="none" xmlns="http://www.w3.org/2000/svg">
<path d="M9.00023 69.9041L0.420234 66.6641L0.420234 65.7521L9.00023 62.4881L9.00023 63.3521L6.30023 64.3481L6.30023 68.0801L9.00023 69.0881L9.00023 69.9041ZM5.64023 67.8401L5.64023 64.5881L2.43623 65.7641L1.18823 66.1961L1.18823 66.2201C1.67623 66.3721 2.09223 66.5121 2.43623 66.6401L5.64023 67.8401Z" fill="#FFFDF8"/>
<path d="M9.00023 60.8766L0.420234 60.8766L0.420234 60.0726L8.25623 60.0726L8.25623 55.5006L9.00023 55.5006L9.00023 60.8766Z" fill="#FFFDF8"/>
<path d="M9.15623 50.7626C9.15623 51.9466 8.74823 52.8866 7.93223 53.5826C7.11623 54.2786 6.04423 54.6266 4.71623 54.6266C3.39623 54.6266 2.32023 54.2746 1.48823 53.5706C0.656234 52.8666 0.240234 51.9186 0.240234 50.7266C0.240233 49.8306 0.472233 49.0946 0.936233 48.5186C1.40023 47.9346 2.03623 47.5706 2.84423 47.4266L2.84423 48.2186C2.26823 48.3386 1.80823 48.6186 1.46423 49.0586C1.11223 49.4986 0.936233 50.0586 0.936233 50.7386C0.936233 51.7066 1.29223 52.4586 2.00423 52.9946C2.70823 53.5226 3.61223 53.7866 4.71623 53.7866C5.82023 53.7866 6.72023 53.5226 7.41623 52.9946C8.10423 52.4586 8.44823 51.7106 8.44823 50.7506C8.44823 49.9586 8.20823 49.3306 7.72823 48.8666C7.24823 48.4026 6.63223 48.1346 5.88023 48.0626L5.88023 47.2826C6.78423 47.3306 7.53223 47.6266 8.12423 48.1706C8.81223 48.7866 9.15623 49.6506 9.15623 50.7626Z" fill="#FFFDF8"/>
<path d="M9.00023 45.4196L0.420233 45.4196L0.420233 44.6156L4.12823 44.6156L4.12823 39.7556L0.420233 39.7556L0.420233 38.9516L9.00023 38.9516L9.00023 39.7556L4.80023 39.7556L4.80023 44.6156L9.00023 44.6156L9.00023 45.4196Z" fill="#FFFDF8"/>
<path d="M9.00023 36.6656L0.420233 36.6656L0.420232 30.8336L1.12823 30.8336L1.12823 35.8616L4.21223 35.8616L4.21223 31.2536L4.90823 31.2536L4.90823 35.8616L8.25623 35.8616L8.25623 30.7016L9.00023 30.7016L9.00023 36.6656Z" fill="#FFFDF8"/>
<path d="M9.00023 28.7438L0.420232 28.7438L0.420232 27.6518L7.90823 24.6878L7.90823 24.6638L0.420232 21.7718L0.420232 20.6438L9.00023 20.6438L9.00023 21.4238L1.52423 21.4238L1.52423 21.4478C1.98023 21.5998 2.36823 21.7358 2.68823 21.8558L9.00023 24.3398L9.00023 25.0478L2.68823 27.5558L1.52423 27.9758L1.52423 27.9998L9.00023 27.9998L9.00023 28.7438Z" fill="#FFFDF8"/>
<path d="M9.00023 15.949L5.25623 15.949L0.420232 19.045L0.420232 18.157L4.57223 15.541L4.57223 15.517L0.420232 12.877L0.420232 12.013L5.28023 15.133L9.00023 15.133L9.00023 15.949Z" fill="#FFFDF8"/>
<path d="M9.00023 7.82496L0.420231 7.82496L0.420231 7.02096L9.00023 7.02096L9.00023 7.82496Z" fill="#FFFDF8"/>
<path d="M9.00023 4.64918L0.420231 4.64918L0.420231 3.84518L9.00023 3.84518L9.00023 4.64918Z" fill="#FFFDF8"/>
<path d="M9.00023 1.4734L0.420231 1.4734L0.420231 0.669395L9.00023 0.669395L9.00023 1.4734Z" fill="#FFFDF8"/>
</svg>
