<svg width="10" height="67" viewBox="0 0 10 67" fill="none" xmlns="http://www.w3.org/2000/svg">
<path d="M9.00023 66.9041L0.420234 63.6641L0.420234 62.7521L9.00023 59.4881L9.00023 60.3521L6.30023 61.3481L6.30023 65.0801L9.00023 66.0881L9.00023 66.9041ZM5.64023 64.8401L5.64023 61.5881L2.43623 62.7641L1.18823 63.1961L1.18823 63.2201C1.67623 63.3721 2.09223 63.5121 2.43623 63.6401L5.64023 64.8401Z" fill="#FFFDF8"/>
<path d="M9.00023 57.8766L0.420234 57.8766L0.420234 57.0726L8.25623 57.0726L8.25623 52.5006L9.00023 52.5006L9.00023 57.8766Z" fill="#FFFDF8"/>
<path d="M9.15623 47.7626C9.15623 48.9466 8.74823 49.8866 7.93223 50.5826C7.11623 51.2786 6.04423 51.6266 4.71623 51.6266C3.39623 51.6266 2.32023 51.2746 1.48823 50.5706C0.656234 49.8666 0.240234 48.9186 0.240234 47.7266C0.240233 46.8306 0.472233 46.0946 0.936233 45.5186C1.40023 44.9346 2.03623 44.5706 2.84423 44.4266L2.84423 45.2186C2.26823 45.3386 1.80823 45.6186 1.46423 46.0586C1.11223 46.4986 0.936233 47.0586 0.936233 47.7386C0.936233 48.7066 1.29223 49.4586 2.00423 49.9946C2.70823 50.5226 3.61223 50.7866 4.71623 50.7866C5.82023 50.7866 6.72023 50.5226 7.41623 49.9946C8.10423 49.4586 8.44823 48.7106 8.44823 47.7506C8.44823 46.9586 8.20823 46.3306 7.72823 45.8666C7.24823 45.4026 6.63223 45.1346 5.88023 45.0626L5.88023 44.2826C6.78423 44.3306 7.53223 44.6266 8.12423 45.1706C8.81223 45.7866 9.15623 46.6506 9.15623 47.7626Z" fill="#FFFDF8"/>
<path d="M9.00023 42.4196L0.420233 42.4196L0.420233 41.6156L4.12823 41.6156L4.12823 36.7556L0.420233 36.7556L0.420233 35.9516L9.00023 35.9516L9.00023 36.7556L4.80023 36.7556L4.80023 41.6156L9.00023 41.6156L9.00023 42.4196Z" fill="#FFFDF8"/>
<path d="M9.00023 33.6656L0.420233 33.6656L0.420232 27.8336L1.12823 27.8336L1.12823 32.8616L4.21223 32.8616L4.21223 28.2536L4.90823 28.2536L4.90823 32.8616L8.25623 32.8616L8.25623 27.7016L9.00023 27.7016L9.00023 33.6656Z" fill="#FFFDF8"/>
<path d="M9.00023 25.7438L0.420232 25.7438L0.420232 24.6518L7.90823 21.6878L7.90823 21.6638L0.420232 18.7718L0.420232 17.6438L9.00023 17.6438L9.00023 18.4238L1.52423 18.4238L1.52423 18.4478C1.98023 18.5998 2.36823 18.7358 2.68823 18.8558L9.00023 21.3398L9.00023 22.0478L2.68823 24.5558L1.52423 24.9758L1.52423 24.9998L9.00023 24.9998L9.00023 25.7438Z" fill="#FFFDF8"/>
<path d="M9.00023 12.949L5.25623 12.949L0.420232 16.045L0.420232 15.157L4.57223 12.541L4.57223 12.517L0.420232 9.87696L0.420232 9.01296L5.28023 12.133L9.00023 12.133L9.00023 12.949Z" fill="#FFFDF8"/>
<path d="M9.00023 4.82496L0.420231 4.82496L0.420231 4.02096L9.00023 4.02096L9.00023 4.82496Z" fill="#FFFDF8"/>
<path d="M9.00023 1.64918L0.420231 1.64918L0.420231 0.845177L9.00023 0.845176L9.00023 1.64918Z" fill="#FFFDF8"/>
</svg>
