<svg width="161" height="32" viewBox="0 0 161 32" fill="none" xmlns="http://www.w3.org/2000/svg">
<path fill-rule="evenodd" clip-rule="evenodd" d="M45.862 24.7868C44.279 26.3099 41.5836 27.5079 38.854 28.3892C35.8598 29.306 32.7441 29.7647 29.6127 29.7497C26.1379 29.8251 22.6835 29.1994 19.4559 27.91C16.8058 26.8618 14.5087 25.0811 12.8329 22.776C11.2825 20.537 10.4771 17.8663 10.5312 15.1434C10.5335 12.7433 11.2449 10.3975 12.5762 8.40064C14.0366 6.22763 16.0514 4.48462 18.412 3.35216C20.1094 2.51793 21.9293 1.9604 23.8027 1.7007C24.8453 1.49882 25.9074 1.41558 26.9687 1.45256C27.0914 1.46577 27.252 1.47315 27.4317 1.48141C28.0664 1.5106 28.939 1.55072 29.2191 1.89751C29.4825 2.25792 29.3067 2.68569 29.1243 3.12962C28.969 3.50781 28.8088 3.89772 28.9111 4.26772C28.975 4.44993 29.0893 4.61023 29.2408 4.72991C29.3923 4.8496 29.5747 4.92376 29.7668 4.94371C30.146 4.98603 30.5294 4.91767 30.8706 4.7469C31.3665 4.49518 31.8341 4.19111 32.2653 3.83989C32.3571 3.76948 32.4531 3.68525 32.5532 3.59739C32.8546 3.33289 33.1934 3.0356 33.566 2.98421C33.6345 2.97618 33.7038 2.98904 33.7649 3.02111C33.826 3.05317 33.8759 3.10295 33.9082 3.16391C33.9253 3.22691 33.9296 3.29268 33.9207 3.35735C33.9119 3.42203 33.8902 3.48428 33.8569 3.54041C33.8105 3.63548 33.7252 3.7477 33.6334 3.8685C33.3699 4.21517 33.0527 4.63249 33.4462 4.91805C33.9435 5.27902 35.0876 4.66992 35.6306 4.38083C35.6668 4.36154 35.7003 4.34368 35.7308 4.32763C36.4571 4.02155 37.2557 3.92951 38.0326 4.06237C41.2671 4.43887 43.6373 5.91918 44.7325 10.7195H45.8364V6.03041C45.8364 3.55751 45.4085 1.3242 38.2465 1.88895C37.5555 1.93962 37.1645 2.27557 36.8147 2.57623C36.5147 2.834 36.2449 3.06583 35.8421 3.06978C35.7607 3.07432 35.6796 3.05685 35.6073 3.0192C35.5351 2.98156 35.4743 2.92513 35.4313 2.85586C35.3865 2.70885 35.3634 2.55606 35.3629 2.40236C35.3197 2.24745 35.2302 2.10946 35.1063 2.00697C34.9824 1.90447 34.83 1.84239 34.6698 1.82906C34.3461 1.80042 34.0203 1.85032 33.72 1.97452C33.1756 2.13164 32.6436 2.32899 32.1284 2.56494C32.0725 2.59292 32.0165 2.62279 31.9603 2.65278L31.9603 2.65279C31.6385 2.82457 31.3093 3.00029 30.9305 2.84731C30.8541 2.82172 30.7872 2.77377 30.7383 2.7097C30.6895 2.64562 30.6611 2.56835 30.6567 2.48792C30.6758 2.39706 30.7106 2.31022 30.7594 2.23122C30.8808 1.97805 30.9381 1.69888 30.9261 1.41834C30.9142 1.13779 30.8334 0.864496 30.6909 0.622551C30.3251 0.296406 29.8455 0.127346 29.356 0.151926C23.9876 -0.313895 18.5801 0.294046 13.449 1.94029C9.78635 3.02297 6.43388 4.96171 3.66866 7.5963C2.50767 8.72614 1.58487 10.0772 0.954755 11.5696C0.324643 13.0621 0 14.6657 0 16.2857C0 17.9057 0.324643 19.5093 0.954755 21.0017C1.58487 22.4942 2.50767 23.8452 3.66866 24.9751C6.44003 27.537 9.81269 29.3587 13.4747 30.2717C17.9898 31.472 22.6481 32.0479 27.3195 31.9831C30.093 32.0187 32.8612 31.7316 35.5682 31.1274C37.8031 30.633 39.9696 29.8687 42.02 28.8513C43.4871 28.0547 44.8092 27.0162 45.9305 25.7794L45.862 24.7868ZM56.9346 30.1861C56.4461 30.0011 56.0314 29.6616 55.7537 29.2192C55.4088 28.6354 55.245 27.9623 55.2831 27.2854V4.73831C55.2463 4.05872 55.41 3.38331 55.7537 2.79592C56.0294 2.3537 56.4451 2.01637 56.9346 1.83757C57.4887 1.65026 58.0632 1.52962 58.6459 1.47819C58.757 1.48716 58.8686 1.48716 58.9796 1.47819C59.0608 1.45599 59.1465 1.45599 59.2278 1.47819V0.62251H42.6105V1.47819C42.6862 1.45743 42.766 1.45743 42.8416 1.47819C42.924 1.4873 43.0073 1.4873 43.0897 1.47819C43.7102 1.51864 44.3229 1.63944 44.9123 1.83757C45.3847 2.02557 45.7879 2.35414 46.0675 2.77882C46.428 3.36616 46.5983 4.0505 46.5552 4.73831V27.2854C46.5973 27.966 46.4397 28.644 46.1017 29.2363C45.8132 29.6685 45.3976 30.0004 44.9123 30.1861C44.3221 30.3799 43.7097 30.4977 43.0897 30.5369L42.6105 30.6225V31.3327H59.2021V30.5883L58.6202 30.5027C58.0474 30.4671 57.4812 30.3608 56.9346 30.1861ZM159.718 9.47877C159.928 8.94532 159.928 8.35222 159.718 7.81877C159.676 7.69042 160.172 7.76742 160.104 7.81021C160.269 8.17807 160.345 8.57968 160.326 8.98249C160.326 10.3516 158.717 12.6448 156.766 12.7902C156.076 12.8759 155.374 12.8 154.718 12.5683C154.062 12.3367 153.468 11.9557 152.984 11.4554C152.609 10.9663 152.401 10.3691 152.392 9.75254C152.382 9.13595 152.572 8.53283 152.933 8.03269C153.114 7.84902 153.252 7.6267 153.335 7.38237C153.481 6.86896 153.001 6.61226 152.625 6.71494C152.396 6.77729 152.215 6.94372 152.035 7.10891C151.919 7.2158 151.803 7.32217 151.675 7.39949C151.269 7.60727 150.828 7.74058 150.374 7.7931C149.211 7.93001 147.807 7.29681 148.663 5.98763C149.1 5.32876 149.57 4.51587 149.168 3.72864C148.429 2.24187 145.855 1.95523 144.318 1.78409C144.219 1.77302 144.124 1.76242 144.034 1.75202C140.526 1.31563 136.821 1.25574 133.595 2.71039C132.44 3.21524 131.259 4.10514 131.165 5.37154C131.062 6.92887 132.594 7.9899 133.98 8.64021C137.083 10.1125 140.411 11.0418 143.735 11.9702C147.579 13.0437 151.418 14.1159 154.901 16.0247C157.126 17.2825 159.333 19.0538 159.778 21.5609C159.91 22.5169 159.824 23.4903 159.528 24.4087C159.232 25.3272 158.732 26.1671 158.067 26.8661C156.722 28.2624 155.069 29.326 153.241 29.9722C147.765 32.1371 141.706 32.2312 135.837 31.7862C131.002 31.4097 126.031 30.6311 121.906 28.064C121.577 27.8895 121.286 27.6509 121.05 27.3624C120.814 26.9678 120.666 26.5273 120.614 26.0703L120.563 25.7537C119.362 27.6524 117.675 29.1948 115.677 30.2204C113.225 31.4464 110.511 32.0545 107.77 31.9916C105.972 32.0078 104.181 31.757 102.457 31.2472V31.3327H85.3431V30.4771H85.7795C86.3087 30.4582 86.8302 30.3451 87.3197 30.1433C87.4834 30.0571 87.6258 29.9356 87.7368 29.7877C87.8478 29.6397 87.9245 29.4689 87.9615 29.2877C88.0142 28.6511 87.8836 28.0127 87.585 27.448L86.4897 24.6756H79.747L80.3631 23.238H85.8736L82.1001 13.6716L78.3694 23.238L77.7533 24.6756L76.6152 27.5763C76.3613 28.1423 76.2553 28.7636 76.3072 29.3818C76.3492 29.568 76.438 29.7404 76.5653 29.8827C76.6926 30.0249 76.8541 30.1323 77.0345 30.1947C77.5854 30.383 78.1637 30.4784 78.7459 30.4771H79.0026V31.3327H61.0334V30.6225L61.5639 30.537C62.1901 30.5028 62.8088 30.3848 63.4036 30.1861C63.8842 29.9954 64.2917 29.6567 64.5673 29.2192C64.9055 28.633 65.0661 27.9611 65.0294 27.2854V10.8821H57.8246V9.42743H65.0294V4.73833C65.0648 4.05996 64.9044 3.38572 64.5673 2.79595C64.2941 2.35836 63.8855 2.02189 63.4036 1.8376C62.8083 1.63969 62.19 1.51891 61.5639 1.47821H61.0334V0.622537H77.7191V1.47821H77.1885C76.5776 1.51822 75.9754 1.64499 75.4002 1.85471C74.9155 2.05527 74.5056 2.40232 74.2279 2.8473C73.8971 3.42054 73.7395 4.0774 73.7744 4.73833V27.3282C73.744 27.9201 73.8678 28.5098 74.1338 29.0395C74.5134 28.6363 74.8048 28.1583 74.9895 27.6362L85.8309 0.0321192H86.2245L92.5479 15.8963C92.5106 12.9882 93.177 10.1142 94.4903 7.51928C95.7041 5.16403 97.593 3.22449 99.9153 1.94884C102.349 0.687104 105.05 0.0285156 107.792 0.0285156C110.533 0.0285156 113.234 0.687104 115.668 1.94884C118.003 3.21369 119.9 5.15565 121.11 7.51928L121.162 7.63907C121.542 6.16058 122.392 4.8454 123.583 3.89121C125.036 2.76354 126.7 1.93999 128.478 1.46966C133.662 0.00553473 139.108 -0.286752 144.419 0.613985L144.587 0.639206C146.43 0.914802 148.515 1.22684 150.118 2.23976C150.521 2.42171 150.845 2.7414 151.034 3.14137C151.222 3.54134 151.261 3.99535 151.145 4.42174C151.112 4.5141 150.987 4.69458 150.834 4.91642C150.35 5.61946 149.579 6.73787 150.529 6.7834C151.062 6.80744 151.501 6.41542 151.936 6.02785C152.274 5.72568 152.609 5.42622 152.984 5.32875C153.191 5.28938 153.404 5.29172 153.61 5.33563C153.816 5.37955 154.011 5.46415 154.184 5.58449C154.357 5.70483 154.504 5.85848 154.617 6.03643C154.73 6.21439 154.806 6.41306 154.841 6.62082C154.91 7.11526 154.724 7.58378 154.537 8.0546C154.352 8.52079 154.165 8.98924 154.225 9.48734C154.326 9.99583 154.596 10.4554 154.99 10.7922C155.384 11.129 155.88 11.3234 156.398 11.3442C157.076 11.4114 157.759 11.2685 158.352 10.9348C158.946 10.6011 159.423 10.0928 159.718 9.47877ZM111.262 29.1508C112.353 27.8355 113.071 26.2516 113.341 24.5643V24.5216C114.272 18.855 114.272 13.0746 113.341 7.40804C113.072 5.73111 112.36 4.15649 111.279 2.8473C110.83 2.38613 110.29 2.02325 109.693 1.78169C109.097 1.54012 108.457 1.42512 107.813 1.44399C107.164 1.41954 106.517 1.53013 105.914 1.76875C105.31 2.00737 104.762 2.36881 104.305 2.83018C103.223 4.11026 102.518 5.66542 102.268 7.32248C101.749 10.0862 101.52 12.8967 101.584 15.7081C101.52 18.6386 101.749 21.5682 102.268 24.4531C102.502 26.1796 103.214 27.8065 104.322 29.1508C105.245 30.0657 106.492 30.5791 107.792 30.5791C109.091 30.5791 110.339 30.0657 111.262 29.1508ZM148.822 24.557C148.459 24.2261 148.032 23.9724 147.568 23.8113H147.534C144.477 22.3378 141.19 21.3987 137.909 20.4612C133.739 19.2701 129.578 18.0814 125.911 15.8022C124.752 15.0879 123.705 14.2055 122.805 13.1839C122.949 14.1928 123.017 15.211 123.01 16.2301C123.025 17.9771 122.821 19.7191 122.402 21.4155C125.015 25.1699 128.77 27.9802 133.109 29.428C137.447 30.8758 142.138 30.8836 146.481 29.4502C147.373 29.2158 148.201 28.7829 148.903 28.1839C149.241 27.884 149.492 27.4983 149.629 27.0675C149.766 26.6367 149.784 26.1768 149.681 25.7366C149.478 25.2893 149.186 24.888 148.822 24.557Z" fill="url(#paint0_linear_375_516)"/>
<defs>
<linearGradient id="paint0_linear_375_516" x1="14.5459" y1="8.66667" x2="97.6959" y2="78.5495" gradientUnits="userSpaceOnUse">
<stop stop-color="#FFC076"/>
<stop offset="0.486503" stop-color="#FF855F"/>
<stop offset="1" stop-color="#8EEAE4"/>
</linearGradient>
</defs>
</svg>
