<svg width="161" height="32" viewBox="0 0 161 32" fill="none" xmlns="http://www.w3.org/2000/svg">
<path fill-rule="evenodd" clip-rule="evenodd" d="M114.795 7.21317C116.378 5.69006 119.074 4.49212 121.803 3.61078C124.798 2.69403 127.913 2.23534 131.045 2.25026C134.52 2.1749 137.974 2.80058 141.202 4.08996C143.852 5.13821 146.149 6.9189 147.825 9.22401C149.375 11.463 150.18 14.1337 150.126 16.8566C150.124 19.2567 149.413 21.6025 148.081 23.5994C146.621 25.7724 144.606 27.5154 142.246 28.6478C140.548 29.4821 138.728 30.0396 136.855 30.2993C135.812 30.5012 134.75 30.5844 133.689 30.5474C133.566 30.5342 133.405 30.5268 133.226 30.5186C132.591 30.4894 131.718 30.4493 131.438 30.1025C131.175 29.7421 131.351 29.3143 131.533 28.8704C131.689 28.4922 131.849 28.1023 131.746 27.7323C131.683 27.5501 131.568 27.3898 131.417 27.2701C131.265 27.1504 131.083 27.0762 130.891 27.0563C130.511 27.014 130.128 27.0823 129.787 27.2531C129.291 27.5048 128.823 27.8089 128.392 28.1601C128.3 28.2305 128.204 28.3148 128.104 28.4026C127.803 28.6671 127.464 28.9644 127.092 29.0158C127.023 29.0238 126.954 29.011 126.893 28.9789C126.831 28.9468 126.782 28.897 126.749 28.8361C126.732 28.7731 126.728 28.7073 126.737 28.6426C126.746 28.578 126.767 28.5157 126.801 28.4596C126.847 28.3645 126.932 28.2523 127.024 28.1315C127.288 27.7848 127.605 27.3675 127.211 27.082C126.714 26.721 125.57 27.3301 125.027 27.6192C124.991 27.6385 124.957 27.6563 124.927 27.6724C124.2 27.9785 123.402 28.0705 122.625 27.9376C119.39 27.5611 117.02 26.0808 115.925 21.2805L114.821 21.2805L114.821 25.9696C114.821 28.4425 115.249 30.6758 122.411 30.111C123.102 30.0604 123.493 29.7244 123.843 29.4238C124.143 29.166 124.413 28.9342 124.815 28.9302C124.897 28.9257 124.978 28.9432 125.05 28.9808C125.122 29.0184 125.183 29.0749 125.226 29.1441C125.271 29.2912 125.294 29.4439 125.295 29.5976C125.338 29.7526 125.427 29.8905 125.551 29.993C125.675 30.0955 125.827 30.1576 125.988 30.1709C126.311 30.1996 126.637 30.1497 126.937 30.0255C127.482 29.8684 128.014 29.671 128.529 29.4351C128.585 29.4071 128.641 29.3772 128.697 29.3472L128.697 29.3472C129.019 29.1754 129.348 28.9997 129.727 29.1527C129.803 29.1783 129.87 29.2262 129.919 29.2903C129.968 29.3544 129.996 29.4316 130.001 29.5121C129.982 29.6029 129.947 29.6898 129.898 29.7688C129.777 30.0219 129.719 30.3011 129.731 30.5817C129.743 30.8622 129.824 31.1355 129.967 31.3774C130.332 31.7036 130.812 31.8727 131.301 31.8481C136.67 32.3139 142.077 31.706 147.208 30.0597C150.871 28.977 154.224 27.0383 156.989 24.4037C158.15 23.2739 159.073 21.9228 159.703 20.4304C160.333 18.9379 160.657 17.3343 160.657 15.7143C160.657 14.0943 160.333 12.4907 159.703 10.9983C159.073 9.50582 158.15 8.15476 156.989 7.02492C154.217 4.46299 150.845 2.64128 147.183 1.72828C142.668 0.527949 138.009 -0.0478612 133.338 0.0169311C130.564 -0.0187214 127.796 0.268434 125.089 0.872607C122.854 1.36701 120.688 2.13132 118.637 3.14871C117.17 3.94525 115.848 4.98381 114.727 6.22058L114.795 7.21317ZM103.723 1.81389C104.211 1.99886 104.626 2.3384 104.904 2.78081C105.249 3.36457 105.413 4.03765 105.374 4.71464L105.374 27.2617C105.411 27.9413 105.247 28.6167 104.904 29.2041C104.628 29.6463 104.212 29.9836 103.723 30.1624C103.169 30.3497 102.594 30.4704 102.012 30.5218C101.901 30.5128 101.789 30.5128 101.678 30.5218C101.597 30.544 101.511 30.544 101.43 30.5218L101.43 31.3775L118.047 31.3775L118.047 30.5218C117.971 30.5426 117.892 30.5426 117.816 30.5218C117.733 30.5127 117.65 30.5127 117.568 30.5218C116.947 30.4814 116.335 30.3606 115.745 30.1624C115.273 29.9744 114.87 29.6459 114.59 29.2212C114.229 28.6338 114.059 27.9495 114.102 27.2617L114.102 4.71465C114.06 4.03404 114.218 3.35595 114.556 2.76371C114.844 2.3315 115.26 1.99959 115.745 1.81389C116.335 1.62014 116.948 1.50225 117.568 1.46306L118.047 1.37749L118.047 0.66729L101.455 0.667288L101.455 1.41172L102.037 1.4973C102.61 1.53289 103.176 1.63923 103.723 1.81389ZM0.939011 22.5212C0.729188 23.0547 0.729188 23.6478 0.939011 24.1812C0.981797 24.3096 0.485505 24.2326 0.553956 24.1898C0.388749 23.8219 0.312547 23.4203 0.331483 23.0175C0.331483 21.6484 1.94016 19.3552 3.89108 19.2098C4.58182 19.124 5.28304 19.2 5.93938 19.4317C6.59573 19.6633 7.18926 20.0443 7.67317 20.5446C8.04875 21.0337 8.25659 21.6309 8.26584 22.2474C8.27509 22.864 8.08527 23.4672 7.72452 23.9673C7.54314 24.151 7.40566 24.3733 7.32236 24.6176C7.1769 25.131 7.65607 25.3877 8.03256 25.285C8.26115 25.2227 8.44243 25.0563 8.62235 24.8911C8.73877 24.7842 8.85461 24.6778 8.98236 24.6005C9.38893 24.3927 9.82942 24.2594 10.283 24.2069C11.4467 24.07 12.85 24.7032 11.9943 26.0124C11.5579 26.6712 11.0873 27.4841 11.4895 28.2713C12.2289 29.7581 14.8024 30.0448 16.339 30.2159C16.4385 30.227 16.5336 30.2376 16.6236 30.248C20.1318 30.6844 23.8369 30.7442 27.0628 29.2896C28.2179 28.7848 29.3988 27.8948 29.4929 26.6284C29.5956 25.0711 28.0639 24.0101 26.6777 23.3598C23.5745 21.8875 20.2468 20.9582 16.9224 20.0298C13.0785 18.9563 9.23909 17.8841 5.75647 15.9753C3.53171 14.7175 1.32407 12.9462 0.879122 10.4391C0.747728 9.48304 0.83333 8.50968 1.1296 7.59126C1.42586 6.67284 1.92517 5.83292 2.59047 5.13388C3.9359 3.73754 5.58829 2.67403 7.41648 2.02778C12.8928 -0.137083 18.951 -0.231202 24.8209 0.21375C29.6555 0.590248 34.627 1.36892 38.7513 3.93594C39.0804 4.11054 39.3713 4.34909 39.607 4.6376C39.8431 5.03216 39.9919 5.47273 40.0434 5.92966L40.0947 6.24625C41.295 4.34756 42.9822 2.8052 44.9806 1.77963C47.4323 0.553545 50.1466 -0.0545064 52.8871 0.00839817C54.6854 -0.00784847 56.4762 0.243027 58.2008 0.752833L58.2008 0.66726L75.3143 0.667261L75.3143 1.52294L74.8779 1.52294C74.3488 1.54183 73.8272 1.65484 73.3377 1.85666C73.1741 1.94288 73.0316 2.06435 72.9206 2.21232C72.8097 2.3603 72.7329 2.5311 72.696 2.71234C72.6433 3.34894 72.7739 3.98732 73.0725 4.55203L74.1677 7.32442L80.9105 7.32442L80.2944 8.76194L74.7838 8.76194L78.5574 18.3284L82.2881 8.76194L82.9042 7.32442L84.0422 4.42369C84.2962 3.85767 84.4022 3.2364 84.3503 2.6182C84.3083 2.43199 84.2194 2.25958 84.0922 2.11733C83.9649 1.97507 83.8034 1.86765 83.623 1.8053C83.0721 1.61701 82.4938 1.5216 81.9116 1.52294L81.6549 1.52294L81.6549 0.667262L99.6241 0.667263L99.6241 1.37746L99.0936 1.46304C98.4674 1.49724 97.8487 1.61524 97.2539 1.81387C96.7733 2.00464 96.3657 2.34325 96.0901 2.78078C95.7519 3.36698 95.5914 4.03885 95.6281 4.71462L95.6281 21.1179L102.833 21.1179L102.833 22.5726L95.6281 22.5726L95.6281 27.2617C95.5927 27.94 95.7531 28.6143 96.0901 29.204C96.3634 29.6416 96.772 29.9781 97.2539 30.1624C97.8492 30.3603 98.4675 30.4811 99.0936 30.5218L99.6241 30.5218L99.6241 31.3775L82.9384 31.3775L82.9384 30.5218L83.4689 30.5218C84.0799 30.4818 84.6821 30.355 85.2573 30.1453C85.742 29.9447 86.1518 29.5977 86.4296 29.1527C86.7604 28.5795 86.9179 27.9226 86.8831 27.2617L86.8831 4.67182C86.9135 4.07987 86.7897 3.49018 86.5237 2.96047C86.1441 3.36374 85.8527 3.84167 85.668 4.36379L74.8266 31.9679L74.433 31.9679L68.1096 16.1037C68.1469 19.0118 67.4805 21.8858 66.1672 24.4807C64.9534 26.836 63.0645 28.7755 60.7422 30.0512C58.3084 31.3129 55.6071 31.9715 52.8657 31.9715C50.1243 31.9715 47.423 31.3129 44.9892 30.0512C42.6544 28.7863 40.7572 26.8443 39.5471 24.4807L39.4958 24.3609C39.1156 25.8394 38.2658 27.1546 37.0742 28.1088C35.6219 29.2364 33.9573 30.06 32.1797 30.5303C26.9952 31.9945 21.5499 32.2867 16.2385 31.386L16.0701 31.3608C14.2279 31.0852 12.1421 30.7731 10.5397 29.7602C10.1368 29.5783 9.81209 29.2586 9.62387 28.8586C9.43564 28.4586 9.3963 28.0046 9.51288 27.5782C9.54572 27.4859 9.67012 27.3054 9.82304 27.0836C10.3077 26.3805 11.0786 25.2621 10.129 25.2166C9.59526 25.1925 9.15613 25.5846 8.72197 25.9721C8.38348 26.2743 8.04804 26.5738 7.67317 26.6712C7.4662 26.7106 7.25345 26.7083 7.04739 26.6644C6.84134 26.6204 6.64612 26.5358 6.47319 26.4155C6.30025 26.2952 6.15308 26.1415 6.0403 25.9636C5.92751 25.7856 5.85136 25.5869 5.81636 25.3792C5.74756 24.8847 5.93369 24.4162 6.12074 23.9454C6.30595 23.4792 6.49205 23.0107 6.43245 22.5127C6.33109 22.0042 6.06162 21.5445 5.66739 21.2078C5.27318 20.871 4.77712 20.6765 4.25903 20.6558C3.58112 20.5886 2.89891 20.7315 2.30499 21.0652C1.71106 21.3989 1.23416 21.9072 0.939011 22.5212ZM49.3959 2.84922C48.305 4.16445 47.5869 5.74835 47.3166 7.43566L47.3166 7.47843C46.3858 13.145 46.3858 18.9254 47.3166 24.592C47.5851 26.2689 48.2971 27.8435 49.3788 29.1527C49.8278 29.6139 50.3676 29.9767 50.9642 30.2183C51.5607 30.4599 52.201 30.5749 52.8443 30.556C53.4932 30.5804 54.1401 30.4699 54.744 30.2312C55.3479 29.9926 55.8956 29.6312 56.3526 29.1698C57.4341 27.8897 58.1391 26.3346 58.3891 24.6775C58.9085 21.9138 59.1379 19.1033 59.0736 16.2919C59.1376 13.3614 58.9083 10.4318 58.3891 7.5469C58.155 5.82041 57.4438 4.19349 56.3355 2.84922C55.4124 1.93427 54.1654 1.42094 52.8657 1.42094C51.566 1.42094 50.319 1.93427 49.3959 2.84922ZM11.8352 7.44296C12.1985 7.77392 12.6253 8.02762 13.0896 8.18865L13.1238 8.18865C16.1802 9.66218 19.4672 10.6012 22.7489 11.5388C26.9183 12.7299 31.079 13.9186 34.7468 16.1978C35.906 16.9121 36.9528 17.7945 37.8529 18.8161C37.7089 17.8072 37.6403 16.789 37.6475 15.7699C37.6328 14.0229 37.8369 12.2809 38.255 10.5845C35.6426 6.83008 31.8875 4.01976 27.5488 2.57198C23.2101 1.12419 18.5198 1.1164 14.1763 2.54975C13.2841 2.78419 12.4563 3.21707 11.7547 3.81614C11.4164 4.11595 11.1654 4.50169 11.0283 4.9325C10.8912 5.36331 10.8732 5.82316 10.9761 6.26338C11.1796 6.71071 11.4719 7.11201 11.8352 7.44296Z" fill="url(#paint0_linear_375_512)"/>
<defs>
<linearGradient id="paint0_linear_375_512" x1="146.112" y1="23.3333" x2="62.9616" y2="-46.5495" gradientUnits="userSpaceOnUse">
<stop stop-color="#FFC076"/>
<stop offset="0.486503" stop-color="#FF855F"/>
<stop offset="1" stop-color="#8EEAE4"/>
</linearGradient>
</defs>
</svg>
