<svg width="26" height="24" viewBox="0 0 26 24" fill="none" xmlns="http://www.w3.org/2000/svg">
<path d="M24.4954 0L14.4364 7.47094L16.2965 3.06318L24.4954 0Z" fill="#E2761B"/>
<path d="M1.2738 0L11.2519 7.5417L9.48273 3.06318L1.2738 0Z" fill="#E4761B"/>
<path d="M20.8762 17.3176L18.1971 21.4221L23.9292 22.9992L25.5771 17.4086L20.8762 17.3176Z" fill="#E4761B"/>
<path d="M0.2123 17.4086L1.85004 22.9992L7.58214 21.4221L4.90312 17.3176L0.2123 17.4086Z" fill="#E4761B"/>
<path d="M7.25864 10.3825L5.66133 12.7987L11.353 13.0514L11.1508 6.93513L7.25864 10.3825Z" fill="#E4761B"/>
<path d="M18.5105 10.3825L14.5678 6.86436L14.4364 13.0514L20.1179 12.7987L18.5105 10.3825Z" fill="#E4761B"/>
<path d="M7.58214 21.4221L10.9992 19.754L8.04718 17.449L7.58214 21.4221Z" fill="#E4761B"/>
<path d="M14.77 19.754L18.1971 21.4221L17.722 17.449L14.77 19.754Z" fill="#E4761B"/>
<path d="M18.1971 21.4221L14.77 19.754L15.043 21.9882L15.0126 22.9284L18.1971 21.4221Z" fill="#D7C1B3"/>
<path d="M7.58214 21.4221L10.7666 22.9284L10.7464 21.9882L10.9992 19.754L7.58214 21.4221Z" fill="#D7C1B3"/>
<path d="M10.8172 15.973L7.9663 15.134L9.9781 14.214L10.8172 15.973Z" fill="#233447"/>
<path d="M14.952 15.973L15.7911 14.214L17.813 15.134L14.952 15.973Z" fill="#233447"/>
<path d="M7.58214 21.4221L8.0674 17.3176L4.90312 17.4086L7.58214 21.4221Z" fill="#CD6116"/>
<path d="M17.7119 17.3176L18.1971 21.4221L20.8762 17.4086L17.7119 17.3176Z" fill="#CD6116"/>
<path d="M20.1179 12.7987L14.4364 13.0514L14.9621 15.973L15.8012 14.214L17.8231 15.134L20.1179 12.7987Z" fill="#CD6116"/>
<path d="M7.9663 15.134L9.98821 14.214L10.8172 15.973L11.353 13.0514L5.66133 12.7987L7.9663 15.134Z" fill="#CD6116"/>
<path d="M5.66133 12.7987L8.04718 17.449L7.9663 15.134L5.66133 12.7987Z" fill="#E4751F"/>
<path d="M17.8231 15.134L17.722 17.449L20.1179 12.7987L17.8231 15.134Z" fill="#E4751F"/>
<path d="M11.353 13.0514L10.8172 15.973L11.4844 19.4204L11.6361 14.8812L11.353 13.0514Z" fill="#E4751F"/>
<path d="M14.4364 13.0514L14.1634 14.8711L14.2848 19.4204L14.9621 15.973L14.4364 13.0514Z" fill="#E4751F"/>
<path d="M14.9621 15.973L14.2848 19.4204L14.77 19.754L17.722 17.449L17.8231 15.134L14.9621 15.973Z" fill="#F6851B"/>
<path d="M7.9663 15.134L8.04718 17.449L10.9992 19.754L11.4844 19.4204L10.8172 15.973L7.9663 15.134Z" fill="#F6851B"/>
<path d="M15.0126 22.9284L15.043 21.9882L14.7902 21.7658H10.9789L10.7464 21.9882L10.7666 22.9284L7.58214 21.4221L8.69419 22.3319L10.9486 23.8989H14.8206L17.0851 22.3319L18.1971 21.4221L15.0126 22.9284Z" fill="#C0AD9E"/>
<path d="M14.77 19.754L14.2848 19.4204H11.4844L10.9992 19.754L10.7464 21.9882L10.9789 21.7658H14.7902L15.043 21.9882L14.77 19.754Z" fill="#161616"/>
<path d="M24.92 7.95619L25.7793 3.83151L24.4954 0L14.77 7.2182L18.5105 10.3825L23.7978 11.9292L24.9705 10.5644L24.465 10.2005L25.2738 9.46251L24.647 8.97725L25.4558 8.36057L24.92 7.95619Z" fill="#763D16"/>
<path d="M0 3.83151L0.859309 7.95619L0.313395 8.36057L1.12216 8.97725L0.505476 9.46251L1.31424 10.2005L0.808762 10.5644L1.97136 11.9292L7.25864 10.3825L10.9992 7.2182L1.2738 0L0 3.83151Z" fill="#763D16"/>
<path d="M23.7978 11.9292L18.5105 10.3825L20.1179 12.7987L17.722 17.449L20.8762 17.4086H25.5771L23.7978 11.9292Z" fill="#F6851B"/>
<path d="M7.25864 10.3825L1.97136 11.9292L0.2123 17.4086H4.90312L8.04718 17.449L5.66133 12.7987L7.25864 10.3825Z" fill="#F6851B"/>
<path d="M14.4364 13.0514L14.77 7.2182L16.3067 3.06318H9.48273L10.9992 7.2182L11.353 13.0514L11.4743 14.8913L11.4844 19.4204H14.2848L14.305 14.8913L14.4364 13.0514Z" fill="#F6851B"/>
</svg>
