<svg width="24" height="25" viewBox="0 0 24 25" fill="none" xmlns="http://www.w3.org/2000/svg">
<path fill-rule="evenodd" clip-rule="evenodd" d="M12 0.898926C18.6281 0.898926 24 6.2708 24 12.8989C24 19.5271 18.6281 24.8989 12 24.8989C5.37188 24.8989 0 19.5271 0 12.8989C0 6.2708 5.37188 0.898926 12 0.898926Z" fill="url(#paint0_radial_209_5458)"/>
<path d="M7.62656 10.1661C10.0406 7.8083 13.9594 7.8083 16.3734 10.1661L16.6641 10.4521C16.7859 10.5692 16.7859 10.7614 16.6641 10.8786L15.6703 11.8489C15.6094 11.9099 15.5109 11.9099 15.45 11.8489L15.0516 11.4599C13.3641 9.81455 10.6359 9.81455 8.94844 11.4599L8.52187 11.8771C8.46094 11.938 8.3625 11.938 8.30156 11.8771L7.30781 10.9067C7.18594 10.7896 7.18594 10.5974 7.30781 10.4802L7.62656 10.1661ZM18.4313 12.1724L19.3172 13.0349C19.4391 13.1521 19.4391 13.3442 19.3172 13.4614L15.3281 17.3567C15.2063 17.4739 15.0094 17.4739 14.8922 17.3567L12.0609 14.5911C12.0328 14.563 11.9812 14.563 11.9531 14.5911L9.12188 17.3567C9 17.4739 8.80312 17.4739 8.68594 17.3567L4.68281 13.4614C4.56094 13.3442 4.56094 13.1521 4.68281 13.0349L5.56875 12.1724C5.69062 12.0552 5.8875 12.0552 6.00469 12.1724L8.83594 14.938C8.86406 14.9661 8.91562 14.9661 8.94375 14.938L11.775 12.1724C11.8969 12.0552 12.0938 12.0552 12.2109 12.1724L15.0422 14.938C15.0703 14.9661 15.1219 14.9661 15.15 14.938L17.9812 12.1724C18.1125 12.0552 18.3094 12.0552 18.4313 12.1724Z" fill="white"/>
<defs>
<radialGradient id="paint0_radial_209_5458" cx="0" cy="0" r="1" gradientUnits="userSpaceOnUse" gradientTransform="translate(7.43866e-05 12.8993) scale(24)">
<stop stop-color="#5D9DF6"/>
<stop offset="1" stop-color="#006FFF"/>
</radialGradient>
</defs>
</svg>
