<svg width="18" height="16" viewBox="0 0 18 16" fill="none" xmlns="http://www.w3.org/2000/svg">
<path fill-rule="evenodd" clip-rule="evenodd" d="M8.7959 0.000460109C8.66619 0.0113189 8.54921 0.0894426 8.48247 0.209945L0.0572636 15.3447H0.0574035C-0.0171767 15.4783 -0.0192759 15.6451 0.0522262 15.7809C0.12359 15.9166 0.257361 16.0005 0.402184 16H17.2526C17.3962 15.998 17.528 15.9133 17.5978 15.778C17.6678 15.6426 17.6651 15.4774 17.5911 15.3447L9.16587 0.209937H9.16601C9.09549 0.0835544 8.97025 0.00467628 8.83368 0.00045245C8.82123 -0.000150817 8.80864 -0.000150817 8.79604 0.00045245L8.7959 0.000460109ZM8.77715 5.19608C8.79171 5.19518 8.8064 5.19518 8.82109 5.19608C8.92967 5.19427 9.0342 5.23997 9.11102 5.32261C9.18784 5.40541 9.23024 5.51822 9.22856 5.63526V11.5471C9.22996 11.6628 9.1884 11.7744 9.11298 11.8569C9.03756 11.9392 8.93471 11.9856 8.82725 11.9856C8.71992 11.9856 8.61694 11.9392 8.54151 11.8569C8.46623 11.7744 8.42453 11.6628 8.42607 11.5471V5.63526C8.42131 5.41356 8.573 5.22384 8.77715 5.19608H8.77715ZM8.78345 12.5272C8.7959 12.5266 8.8085 12.5266 8.82109 12.5272C8.92953 12.5254 9.0342 12.5711 9.11102 12.6539C9.18784 12.7365 9.23024 12.8493 9.22856 12.9663V13.0339C9.22996 13.1496 9.1884 13.2612 9.11298 13.3437C9.03756 13.426 8.93471 13.4725 8.82725 13.4725C8.71992 13.4725 8.61693 13.426 8.54151 13.3437C8.46623 13.2612 8.42453 13.1496 8.42607 13.0339V12.9663C8.42159 12.7422 8.57677 12.5516 8.78345 12.5272H8.78345Z" fill="#FFFDF8"/>
</svg>
