<svg width="578" height="62" viewBox="0 0 578 62" fill="none" xmlns="http://www.w3.org/2000/svg">
<path d="M36.1448 33.0881V48.0001H0.0488281V47.2321L1.00883 47.1041C2.28883 46.9334 3.35549 46.6774 4.20883 46.3361C5.10483 45.9947 5.78749 45.4827 6.25683 44.8001C6.76883 44.0747 7.02483 43.1574 7.02483 42.0481V9.15207C7.02483 8.00007 6.76883 7.08273 6.25683 6.40007C5.78749 5.7174 5.10483 5.2054 4.20883 4.86407C3.35549 4.52273 2.28883 4.26673 1.00883 4.09607L0.0488281 3.96807V3.20007H21.8088V3.96807C21.6382 4.01073 21.4888 4.03207 21.3608 4.03207C21.2328 4.03207 21.0835 4.0534 20.9128 4.09607C19.6328 4.22407 18.5448 4.48007 17.6488 4.86407C16.7955 5.2054 16.1128 5.73873 15.6008 6.46407C15.1315 7.14673 14.8968 8.04273 14.8968 9.15207V46.4001H25.0728C27.3768 46.4001 29.2542 45.7601 30.7048 44.4801C32.1982 43.2001 33.3075 41.5787 34.0328 39.6161C34.7582 37.6534 35.2062 35.4774 35.3768 33.0881H36.1448Z" fill="white"/>
<path d="M51.9258 48.9601C48.3845 48.9601 45.2698 48.2134 42.5818 46.7201C39.9365 45.1841 37.8672 43.1361 36.3738 40.5761C34.8805 38.0161 34.1338 35.2214 34.1338 32.1921C34.1338 29.1201 34.8378 26.2827 36.2458 23.6801C37.6538 21.0347 39.6165 18.9441 42.1338 17.4081C44.6938 15.8294 47.5952 15.0401 50.8378 15.0401C54.1658 15.0401 56.9818 15.6801 59.2858 16.9601C61.6325 18.1974 63.3605 19.7974 64.4698 21.7601C65.6218 23.7227 66.1978 25.7707 66.1978 27.9041H58.5178C58.4752 25.1734 58.1125 22.9761 57.4298 21.3121C56.7898 19.6481 55.9365 18.4534 54.8698 17.7281C53.8032 17.0027 52.5872 16.6401 51.2218 16.6401C49.5578 16.6401 48.0218 17.3014 46.6138 18.6241C45.2058 19.9041 44.0965 21.7174 43.2858 24.0641C42.4752 26.3681 42.0912 28.9921 42.1338 31.9361C42.1765 34.8801 42.6458 37.4827 43.5418 39.7441C44.4805 42.0054 45.7818 43.7761 47.4458 45.0561C49.1525 46.2934 51.1365 46.9121 53.3978 46.9121C55.7018 46.9121 57.8565 46.1867 59.8618 44.7361C61.9098 43.2854 63.5098 40.9814 64.6618 37.8241L66.1338 38.5281C65.3232 40.9174 64.2138 42.8801 62.8058 44.4161C61.4405 45.9521 59.8405 47.1041 58.0058 47.8721C56.2138 48.5974 54.1872 48.9601 51.9258 48.9601ZM39.9578 26.2401H64.4698V27.9041H39.9578V26.2401Z" fill="white"/>
<path d="M61.9728 16.0001H86.0368V17.6641H61.9728V16.0001ZM61.9728 16.0001C64.8742 15.9574 67.1142 15.4881 68.6928 14.5921C70.2715 13.6534 71.4022 12.3094 72.0848 10.5601C72.7675 8.76807 73.2368 6.31473 73.4928 3.20007H74.9648V16.0001H61.9728ZM87.8288 42.8161C86.7622 44.8641 85.3755 46.4001 83.6688 47.4241C82.0048 48.4481 80.0208 48.9601 77.7168 48.9601C75.7115 48.9601 73.9408 48.5121 72.4048 47.6161C70.8688 46.6774 69.6528 45.3334 68.7568 43.5841C67.9035 41.7921 67.4768 39.5947 67.4768 36.9921V17.3441H74.9648V35.7121C74.9648 39.3814 75.4128 42.1121 76.3088 43.9041C77.2475 45.6961 78.5488 46.5921 80.2128 46.5921C81.4075 46.5921 82.5808 46.1867 83.7328 45.3761C84.8848 44.5654 85.8022 43.3921 86.4848 41.8561L87.8288 42.8161Z" fill="white"/>
<path d="M98.0578 16.0001H122.122V17.6641H98.0578V16.0001ZM98.0578 16.0001C100.959 15.9574 103.199 15.4881 104.778 14.5921C106.356 13.6534 107.487 12.3094 108.17 10.5601C108.852 8.76807 109.322 6.31473 109.578 3.20007H111.05V16.0001H98.0578ZM123.914 42.8161C122.847 44.8641 121.46 46.4001 119.754 47.4241C118.09 48.4481 116.106 48.9601 113.802 48.9601C111.796 48.9601 110.026 48.5121 108.49 47.6161C106.954 46.6774 105.738 45.3334 104.842 43.5841C103.988 41.7921 103.562 39.5947 103.562 36.9921V17.3441H111.05V35.7121C111.05 39.3814 111.498 42.1121 112.394 43.9041C113.332 45.6961 114.634 46.5921 116.298 46.5921C117.492 46.5921 118.666 46.1867 119.818 45.3761C120.97 44.5654 121.887 43.3921 122.57 41.8561L123.914 42.8161Z" fill="white"/>
<path d="M118.067 47.2321L118.963 47.1041C120.243 46.9334 121.288 46.6774 122.099 46.3361C122.909 45.9947 123.528 45.4827 123.955 44.8001C124.381 44.0747 124.595 43.1574 124.595 42.0481V9.15207C124.595 8.00007 124.36 7.08273 123.891 6.40007C123.421 5.67473 122.739 5.1414 121.843 4.80007C120.989 4.41607 119.901 4.16007 118.579 4.03207C118.493 4.03207 118.408 4.03207 118.323 4.03207C118.237 3.9894 118.152 3.96807 118.067 3.96807V3.20007H132.083V19.8401C133.363 18.1334 134.963 16.9174 136.883 16.1921C138.803 15.4667 140.851 15.1041 143.027 15.1041C145.416 15.1041 147.613 15.5307 149.619 16.3841C151.624 17.2374 153.224 18.5174 154.419 20.2241C155.613 21.9307 156.211 24.0214 156.211 26.4961V42.0481C156.211 43.1574 156.424 44.0747 156.851 44.8001C157.277 45.4827 157.875 45.9947 158.643 46.3361C159.453 46.6774 160.477 46.9334 161.715 47.1041L162.739 47.2321V48.0001H142.451V47.2321C142.621 47.1894 142.792 47.1681 142.963 47.1681C143.176 47.1254 143.368 47.1041 143.539 47.1041C144.776 46.8907 145.757 46.6134 146.483 46.2721C147.208 45.9307 147.763 45.4187 148.147 44.7361C148.573 44.0534 148.787 43.1574 148.787 42.0481V26.6881C148.787 24.6401 148.424 22.9334 147.699 21.5681C147.016 20.1601 146.099 19.1147 144.947 18.4321C143.795 17.7067 142.515 17.3441 141.107 17.3441C139.315 17.3441 137.736 17.8561 136.371 18.8801C135.005 19.9041 133.939 21.3761 133.171 23.2961C132.445 25.2161 132.083 27.4774 132.083 30.0801V42.0481C132.083 43.2001 132.275 44.1174 132.659 44.8001C133.085 45.4401 133.661 45.9521 134.387 46.3361C135.155 46.6774 136.136 46.9334 137.331 47.1041C137.501 47.1467 137.672 47.1681 137.843 47.1681C138.056 47.1681 138.248 47.1894 138.419 47.2321V48.0001H118.067V47.2321Z" fill="white"/>
<path d="M175.846 48.9601C172.304 48.9601 169.19 48.2134 166.502 46.7201C163.856 45.1841 161.787 43.1361 160.294 40.5761C158.8 38.0161 158.054 35.2214 158.054 32.1921C158.054 29.1201 158.758 26.2827 160.166 23.6801C161.574 21.0347 163.536 18.9441 166.054 17.4081C168.614 15.8294 171.515 15.0401 174.758 15.0401C178.086 15.0401 180.902 15.6801 183.206 16.9601C185.552 18.1974 187.28 19.7974 188.39 21.7601C189.542 23.7227 190.118 25.7707 190.118 27.9041H182.438C182.395 25.1734 182.032 22.9761 181.35 21.3121C180.71 19.6481 179.856 18.4534 178.79 17.7281C177.723 17.0027 176.507 16.6401 175.142 16.6401C173.478 16.6401 171.942 17.3014 170.534 18.6241C169.126 19.9041 168.016 21.7174 167.206 24.0641C166.395 26.3681 166.011 28.9921 166.054 31.9361C166.096 34.8801 166.566 37.4827 167.462 39.7441C168.4 42.0054 169.702 43.7761 171.366 45.0561C173.072 46.2934 175.056 46.9121 177.318 46.9121C179.622 46.9121 181.776 46.1867 183.782 44.7361C185.83 43.2854 187.43 40.9814 188.582 37.8241L190.054 38.5281C189.243 40.9174 188.134 42.8801 186.726 44.4161C185.36 45.9521 183.76 47.1041 181.926 47.8721C180.134 48.5974 178.107 48.9601 175.846 48.9601ZM163.878 26.2401H188.39V27.9041H163.878V26.2401Z" fill="white"/>
<path d="M227.697 2.24007C231.195 2.24007 234.331 2.7094 237.105 3.64807C239.878 4.58673 242.097 5.7814 243.761 7.23207L245.169 17.9201H244.209C243.057 14.8054 241.649 12.2241 239.985 10.1761C238.321 8.0854 236.486 6.52807 234.481 5.50407C232.518 4.48007 230.449 3.96807 228.273 3.96807C225.499 3.96807 222.961 4.84273 220.657 6.59207C218.353 8.29873 216.539 10.7947 215.217 14.0801C213.894 17.3227 213.233 21.1414 213.233 25.5361C213.233 29.7601 213.851 33.4507 215.089 36.6081C216.369 39.7654 218.182 42.2187 220.529 43.9681C222.918 45.7174 225.691 46.6134 228.849 46.6561C232.091 46.6987 235.057 45.8454 237.745 44.0961C240.475 42.3467 242.694 39.8081 244.401 36.4801L245.873 37.3761C244.763 39.5521 243.334 41.5147 241.585 43.2641C239.878 44.9707 237.894 46.3361 235.633 47.3601C233.371 48.3841 230.833 48.8961 228.017 48.8961C223.622 48.8961 219.654 47.9361 216.113 46.0161C212.614 44.0534 209.862 41.3227 207.857 37.8241C205.894 34.3254 204.913 30.3574 204.913 25.9201C204.913 21.1414 205.915 16.9601 207.921 13.3761C209.969 9.79207 212.721 7.04007 216.177 5.12007C219.675 3.20007 223.515 2.24007 227.697 2.24007Z" fill="white"/>
<path d="M292.468 3.96807L291.316 4.09607C290.078 4.26673 289.012 4.54407 288.116 4.92807C287.262 5.2694 286.58 5.7814 286.068 6.46407C285.556 7.14673 285.3 8.04273 285.3 9.15207V42.0481C285.3 43.1574 285.556 44.0534 286.068 44.7361C286.58 45.4187 287.262 45.9521 288.116 46.3361C289.012 46.6774 290.078 46.9334 291.316 47.1041L292.468 47.2321V48.0001H270.26V47.2321L271.156 47.1041C272.478 46.9334 273.588 46.6774 274.484 46.3361C275.422 45.9947 276.148 45.4827 276.66 44.8001C277.172 44.0747 277.428 43.1574 277.428 42.0481V17.7281H258.356V42.0481C258.356 43.1574 258.612 44.0534 259.124 44.7361C259.636 45.4187 260.319 45.9521 261.172 46.3361C262.068 46.6774 263.134 46.9334 264.372 47.1041L265.46 47.2321V48.0001H243.252V47.2321L244.148 47.1041C245.47 46.9334 246.58 46.6774 247.476 46.3361C248.414 45.9947 249.14 45.4827 249.652 44.8001C250.164 44.0747 250.42 43.1574 250.42 42.0481V9.15207C250.42 8.00007 250.164 7.08273 249.652 6.40007C249.14 5.67473 248.436 5.16273 247.54 4.86407C246.644 4.52273 245.534 4.26673 244.212 4.09607C244.041 4.0534 243.87 4.03207 243.7 4.03207C243.572 3.9894 243.422 3.96807 243.252 3.96807V3.20007H265.46V3.96807C265.289 3.96807 265.097 3.9894 264.884 4.03207C264.713 4.03207 264.542 4.0534 264.372 4.09607C263.134 4.26673 262.068 4.52273 261.172 4.86407C260.319 5.2054 259.636 5.73873 259.124 6.46407C258.612 7.14673 258.356 8.04273 258.356 9.15207V16.0001H277.428V9.15207C277.428 8.04273 277.172 7.14673 276.66 6.46407C276.148 5.73873 275.422 5.2054 274.484 4.86407C273.588 4.52273 272.478 4.26673 271.156 4.09607L270.26 3.96807V3.20007H292.468V3.96807Z" fill="white"/>
<path d="M287.613 47.2321C287.784 47.2321 287.933 47.2321 288.061 47.2321C288.189 47.1894 288.317 47.1467 288.445 47.1041C289.811 46.9761 291.005 46.7414 292.029 46.4001C293.053 46.0587 293.949 45.5681 294.717 44.9281C295.528 44.2454 296.147 43.3707 296.573 42.3041L310.525 2.24007H310.909L325.565 42.3041C325.992 43.3707 326.611 44.2454 327.421 44.9281C328.232 45.5681 329.128 46.0587 330.109 46.4001C331.133 46.6987 332.307 46.9334 333.629 47.1041C333.8 47.1467 333.949 47.1681 334.077 47.1681C334.248 47.1681 334.419 47.1894 334.589 47.2321V48.0001H312.061V47.2321C312.189 47.2321 312.317 47.2321 312.445 47.2321C312.616 47.1894 312.765 47.1467 312.893 47.1041C314.131 46.9334 315.112 46.6987 315.837 46.4001C316.563 46.0587 317.032 45.5681 317.245 44.9281C317.459 44.2454 317.352 43.3494 316.925 42.2401L315.133 37.5681H300.221L298.493 42.4321C298.152 43.4987 298.109 44.3734 298.365 45.0561C298.621 45.6961 299.133 46.1654 299.901 46.4641C300.669 46.7627 301.715 46.9974 303.037 47.1681L303.549 47.2321V48.0001H287.613V47.2321ZM314.493 35.8401L307.517 17.1521L300.861 35.8401H314.493Z" fill="white"/>
<path d="M351.95 48.9601C347.811 48.9601 344.056 47.9787 340.686 46.0161C337.358 44.0534 334.734 41.3227 332.814 37.8241C330.937 34.3254 329.998 30.3574 329.998 25.9201C329.998 21.4827 330.937 17.4721 332.814 13.8881C334.734 10.2614 337.379 7.42407 340.75 5.37607C344.12 3.2854 347.854 2.24007 351.95 2.24007C356.088 2.24007 359.822 3.2854 363.15 5.37607C366.478 7.42407 369.102 10.2614 371.022 13.8881C372.942 17.4721 373.902 21.4827 373.902 25.9201C373.902 30.3574 372.942 34.3254 371.022 37.8241C369.144 41.3227 366.542 44.0534 363.214 46.0161C359.886 47.9787 356.131 48.9601 351.95 48.9601ZM351.95 47.2321C354.894 47.2321 357.369 46.4001 359.374 44.7361C361.422 43.0721 362.936 40.6614 363.918 37.5041C364.942 34.3467 365.454 30.4641 365.454 25.8561C365.454 21.0774 364.942 17.0667 363.918 13.8241C362.936 10.5814 361.422 8.12807 359.374 6.46407C357.369 4.80007 354.894 3.96807 351.95 3.96807C348.963 3.96807 346.446 4.80007 344.398 6.46407C342.392 8.12807 340.878 10.5814 339.854 13.8241C338.872 17.0241 338.382 20.9921 338.382 25.7281C338.382 30.3787 338.872 34.3041 339.854 37.5041C340.878 40.6614 342.392 43.0721 344.398 44.7361C346.446 46.4001 348.963 47.2321 351.95 47.2321Z" fill="white"/>
<path d="M390.4 48.9601C387.115 48.9601 384.085 48.5547 381.312 47.7441C378.538 46.9334 376.426 45.8027 374.976 44.3521L373.312 32.2561H374.464C375.275 35.4987 376.469 38.2507 378.048 40.5121C379.669 42.7307 381.547 44.4161 383.68 45.5681C385.813 46.7201 388.075 47.2961 390.464 47.2961C392.085 47.2961 393.514 47.0827 394.752 46.6561C396.032 46.1867 397.013 45.4827 397.696 44.5441C398.421 43.6054 398.784 42.4321 398.784 41.0241C398.784 39.8294 398.336 38.6347 397.44 37.4401C396.587 36.2027 395.499 35.0507 394.176 33.9841C392.896 32.8747 391.104 31.4241 388.8 29.6321C385.856 27.4134 383.467 25.4934 381.632 23.8721C379.84 22.2081 378.304 20.3734 377.024 18.3681C375.787 16.3627 375.168 14.2721 375.168 12.0961C375.168 10.1334 375.744 8.4054 376.896 6.91207C378.048 5.41873 379.669 4.26673 381.76 3.45607C383.893 2.6454 386.347 2.24007 389.12 2.24007C391.979 2.24007 394.325 2.5174 396.16 3.07207C398.037 3.62673 399.829 4.48007 401.536 5.63206L403.264 16.2561H402.304C401.365 13.6107 400.213 11.3707 398.848 9.53607C397.525 7.65873 396.075 6.27207 394.496 5.37607C392.96 4.4374 391.381 3.96807 389.76 3.96807C388.522 3.96807 387.349 4.1814 386.24 4.60807C385.131 4.99207 384.213 5.61073 383.488 6.46407C382.805 7.3174 382.464 8.38407 382.464 9.66407C382.464 11.2854 382.933 12.8427 383.872 14.3361C384.853 15.7867 386.048 17.1521 387.456 18.4321C388.907 19.7121 390.827 21.2694 393.216 23.1041C395.947 25.0667 398.123 26.7521 399.744 28.1601C401.408 29.5681 402.816 31.1467 403.968 32.8961C405.12 34.6454 405.696 36.5227 405.696 38.5281C405.696 40.9174 404.992 42.9014 403.584 44.4801C402.176 46.0161 400.32 47.1467 398.016 47.8721C395.712 48.5974 393.173 48.9601 390.4 48.9601Z" fill="white"/>
<path d="M422.372 9.15207C422.372 8.00007 422.137 7.08273 421.668 6.40007C421.198 5.67473 420.516 5.1414 419.62 4.80007C418.766 4.45873 417.679 4.20273 416.356 4.03207C416.271 4.03207 416.185 4.03207 416.1 4.03207C416.014 3.9894 415.929 3.96807 415.844 3.96807V3.20007H429.86V20.6721C431.225 18.8801 433.039 17.4934 435.3 16.5121C437.561 15.5307 439.951 15.0401 442.468 15.0401C445.455 15.0401 448.1 15.8294 450.404 17.4081C452.708 18.9441 454.478 21.0134 455.716 23.6161C456.953 26.2187 457.572 29.0347 457.572 32.0641C457.572 35.0934 456.953 37.8881 455.716 40.4481C454.478 43.0081 452.708 45.0774 450.404 46.6561C448.1 48.1921 445.455 48.9601 442.468 48.9601C439.652 48.9601 437.07 48.2987 434.724 46.9761C432.377 45.6107 430.521 43.7547 429.156 41.4081L422.692 48.9601H422.372V9.15207ZM439.908 46.5921C441.871 46.5921 443.577 45.9307 445.028 44.6081C446.521 43.2854 447.652 41.5147 448.42 39.2961C449.188 37.0774 449.572 34.6454 449.572 32.0001C449.572 29.3121 449.188 26.8587 448.42 24.6401C447.652 22.3787 446.521 20.5867 445.028 19.2641C443.577 17.9414 441.871 17.2801 439.908 17.2801C438.287 17.2801 436.686 17.8987 435.108 19.1361C433.572 20.3734 432.313 22.1014 431.332 24.3201C430.35 26.4961 429.86 28.9707 429.86 31.7441C429.86 34.6027 430.35 37.1627 431.332 39.4241C432.356 41.6854 433.636 43.4561 435.172 44.7361C436.708 45.9734 438.287 46.5921 439.908 46.5921Z" fill="white"/>
<path d="M473.178 48.9601C469.637 48.9601 466.522 48.2134 463.834 46.7201C461.189 45.1841 459.12 43.1361 457.626 40.5761C456.133 38.0161 455.386 35.2214 455.386 32.1921C455.386 29.1201 456.09 26.2827 457.498 23.6801C458.906 21.0347 460.869 18.9441 463.386 17.4081C465.946 15.8294 468.848 15.0401 472.09 15.0401C475.418 15.0401 478.234 15.6801 480.538 16.9601C482.885 18.1974 484.613 19.7974 485.722 21.7601C486.874 23.7227 487.45 25.7707 487.45 27.9041H479.77C479.728 25.1734 479.365 22.9761 478.682 21.3121C478.042 19.6481 477.189 18.4534 476.122 17.7281C475.056 17.0027 473.84 16.6401 472.474 16.6401C470.81 16.6401 469.274 17.3014 467.866 18.6241C466.458 19.9041 465.349 21.7174 464.538 24.0641C463.728 26.3681 463.344 28.9921 463.386 31.9361C463.429 34.8801 463.898 37.4827 464.794 39.7441C465.733 42.0054 467.034 43.7761 468.698 45.0561C470.405 46.2934 472.389 46.9121 474.65 46.9121C476.954 46.9121 479.109 46.1867 481.114 44.7361C483.162 43.2854 484.762 40.9814 485.914 37.8241L487.386 38.5281C486.576 40.9174 485.466 42.8801 484.058 44.4161C482.693 45.9521 481.093 47.1041 479.258 47.8721C477.466 48.5974 475.44 48.9601 473.178 48.9601ZM461.21 26.2401H485.722V27.9041H461.21V26.2401Z" fill="white"/>
<path d="M503.385 37.1841C500.399 37.1841 497.711 36.7147 495.321 35.7761C492.975 34.8374 491.119 33.5574 489.753 31.9361C488.431 30.3147 487.769 28.5227 487.769 26.5601C487.769 24.5974 488.431 22.8054 489.753 21.1841C491.076 19.5627 492.932 18.3041 495.321 17.4081C497.711 16.4694 500.399 16.0001 503.385 16.0001C506.372 16.0001 509.039 16.4694 511.385 17.4081C513.775 18.3041 515.631 19.5627 516.953 21.1841C518.276 22.8054 518.937 24.5974 518.937 26.5601C518.937 28.5227 518.276 30.3147 516.953 31.9361C515.631 33.5574 513.775 34.8374 511.385 35.7761C509.039 36.7147 506.372 37.1841 503.385 37.1841ZM503.385 35.5201C504.964 35.5201 506.329 35.1147 507.481 34.3041C508.633 33.4934 509.508 32.4054 510.105 31.0401C510.703 29.6747 511.001 28.1814 511.001 26.5601C511.001 24.9387 510.703 23.4454 510.105 22.0801C509.508 20.7147 508.633 19.6481 507.481 18.8801C506.329 18.0694 504.964 17.6641 503.385 17.6641C501.764 17.6641 500.377 18.0694 499.225 18.8801C498.073 19.6481 497.199 20.7147 496.601 22.0801C496.004 23.4454 495.705 24.9387 495.705 26.5601C495.705 28.1814 496.004 29.6747 496.601 31.0401C497.199 32.4054 498.073 33.4934 499.225 34.3041C500.377 35.1147 501.764 35.5201 503.385 35.5201ZM503.449 16.0001H521.241V17.6641H503.449V16.0001ZM487.833 40.4481C487.833 39.5094 488.217 38.6987 488.985 38.0161C489.796 37.2907 490.841 36.7147 492.121 36.2881C493.444 35.8187 494.916 35.4561 496.537 35.2001L499.289 35.9681C499.247 35.9681 498.863 36.0747 498.137 36.2881C496.857 36.6294 495.833 36.9707 495.065 37.3121C494.297 37.6534 493.913 38.1441 493.913 38.7841C493.913 39.5094 494.617 40.0641 496.025 40.4481C497.433 40.8321 499.695 41.2587 502.809 41.7281C506.735 42.3254 509.977 42.9441 512.537 43.5841C515.097 44.1814 517.316 45.1414 519.193 46.4641C521.113 47.7441 522.073 49.4721 522.073 51.6481C522.116 53.7387 521.369 55.5307 519.833 57.0241C518.34 58.5601 516.143 59.7334 513.241 60.5441C510.34 61.3547 506.841 61.7601 502.745 61.7601C498.777 61.7601 495.364 61.3547 492.505 60.5441C489.647 59.7761 487.449 58.7094 485.913 57.3441C484.377 55.9787 483.609 54.4214 483.609 52.6721C483.609 51.2214 484.164 49.9201 485.273 48.7681C486.383 47.6161 487.897 46.6561 489.817 45.8881C491.78 45.0774 493.999 44.5014 496.473 44.1601L498.521 44.8001C496.516 45.5681 494.852 46.5921 493.529 47.8721C492.207 49.1521 491.545 50.5814 491.545 52.1601C491.545 53.7387 492.1 55.1254 493.209 56.3201C494.361 57.5574 495.812 58.4961 497.561 59.1361C499.353 59.7761 501.167 60.0961 503.001 60.0961C505.007 60.0961 506.841 59.8187 508.505 59.2641C510.212 58.7094 511.577 57.8561 512.601 56.7041C513.625 55.5947 514.137 54.2507 514.137 52.6721C514.137 51.1361 513.455 49.8987 512.089 48.9601C510.724 48.0641 509.081 47.4027 507.161 46.9761C505.284 46.5067 502.767 46.0374 499.609 45.5681C496.879 45.1841 494.745 44.8214 493.209 44.4801C491.673 44.1387 490.372 43.6481 489.305 43.0081C488.281 42.3681 487.791 41.5147 487.833 40.4481Z" fill="white"/>
<path d="M516.297 47.2321L517.193 47.1041C518.516 46.9334 519.604 46.6774 520.457 46.3361C521.353 45.9947 522.036 45.4827 522.505 44.8001C523.017 44.0747 523.273 43.1574 523.273 42.0481V21.9521C523.273 20.8001 522.996 19.8827 522.441 19.2001C521.929 18.4747 521.204 17.9414 520.265 17.6001C519.369 17.2587 518.217 17.0027 516.809 16.8321C516.724 16.8321 516.638 16.8321 516.553 16.8321C516.468 16.7894 516.382 16.7681 516.297 16.7681V16.0001H530.697V42.0481C530.697 43.1574 530.932 44.0534 531.401 44.7361C531.913 45.4187 532.574 45.9521 533.385 46.3361C534.238 46.6774 535.284 46.9334 536.521 47.1041L537.609 47.2321V48.0001H516.297V47.2321ZM527.241 9.40807C525.961 9.40807 524.873 9.02407 523.977 8.25607C523.081 7.4454 522.633 6.40007 522.633 5.12007C522.633 3.7974 523.081 2.75207 523.977 1.98407C524.873 1.1734 525.961 0.768066 527.241 0.768066C528.564 0.768066 529.673 1.1734 530.569 1.98407C531.465 2.75207 531.913 3.7974 531.913 5.12007C531.913 6.40007 531.465 7.4454 530.569 8.25607C529.673 9.02407 528.564 9.40807 527.241 9.40807Z" fill="white"/>
<path d="M570.527 42.0481C570.527 43.1574 570.719 44.0747 571.103 44.8001C571.53 45.4827 572.149 45.9947 572.959 46.3361C573.77 46.6774 574.794 46.9334 576.031 47.1041L577.055 47.2321V48.0001H556.767V47.2321C556.938 47.1894 557.109 47.1681 557.279 47.1681C557.493 47.1254 557.685 47.1041 557.855 47.1041C559.093 46.8907 560.074 46.6134 560.799 46.2721C561.525 45.9307 562.079 45.4187 562.463 44.7361C562.89 44.0534 563.103 43.1574 563.103 42.0481V27.6481C563.103 25.2161 562.783 23.2321 562.143 21.6961C561.503 20.1601 560.629 19.0507 559.519 18.3681C558.41 17.6427 557.13 17.2801 555.679 17.2801C554.015 17.2801 552.394 17.8347 550.815 18.9441C549.279 20.0107 548.042 21.5681 547.103 23.6161C546.165 25.6641 545.695 28.0321 545.695 30.7201V42.0481C545.695 43.2001 545.887 44.1174 546.271 44.8001C546.698 45.4401 547.274 45.9521 547.999 46.3361C548.767 46.6774 549.749 46.9334 550.943 47.1041C551.114 47.1467 551.285 47.1681 551.455 47.1681C551.669 47.1681 551.861 47.1894 552.031 47.2321V48.0001H531.679V47.2321L532.575 47.1041C533.855 46.9334 534.901 46.6774 535.711 46.3361C536.522 45.9947 537.141 45.4827 537.567 44.8001C538.037 44.0747 538.25 43.1574 538.207 42.0481V21.9521C538.207 20.8001 537.973 19.8827 537.503 19.2001C537.034 18.4747 536.351 17.9414 535.455 17.6001C534.602 17.2161 533.514 16.9601 532.191 16.8321C532.106 16.8321 532.021 16.8321 531.935 16.8321C531.85 16.7894 531.765 16.7681 531.679 16.7681V16.0001H545.759V21.1201C546.997 19.1574 548.618 17.6641 550.623 16.6401C552.671 15.6161 554.847 15.1041 557.151 15.1041C559.797 15.1041 562.122 15.5307 564.127 16.3841C566.133 17.2374 567.69 18.5601 568.799 20.3521C569.951 22.1441 570.527 24.2987 570.527 26.8161V42.0481Z" fill="white"/>
</svg>
