<svg width="10" height="49" viewBox="0 0 10 49" fill="none" xmlns="http://www.w3.org/2000/svg">
<path d="M9.15623 45.2561C9.15623 46.3361 8.88823 47.1721 8.35223 47.7641C7.80823 48.3561 7.09623 48.6761 6.21623 48.7241L6.21623 47.9201C6.93623 47.8801 7.49623 47.6281 7.89623 47.1641C8.28823 46.6921 8.48423 46.0521 8.48423 45.2441C8.48423 44.5961 8.32823 44.0681 8.01623 43.6601C7.69623 43.2521 7.25223 43.0481 6.68423 43.0481C6.11623 43.0481 5.71223 43.2401 5.47223 43.6241C5.23223 44.0001 5.01223 44.6881 4.81223 45.6881C4.63623 46.5841 4.38423 47.2601 4.05623 47.7161C3.72823 48.1641 3.21623 48.3881 2.52023 48.3881C1.84023 48.3881 1.29223 48.1241 0.876234 47.5961C0.460234 47.0681 0.252234 46.3761 0.252234 45.5201C0.252234 44.6001 0.480234 43.8881 0.936234 43.3841C1.38423 42.8721 1.99223 42.5761 2.76023 42.4961L2.76023 43.2761C2.16823 43.3481 1.71623 43.5841 1.40423 43.9841C1.08423 44.3761 0.924234 44.8841 0.924234 45.5081C0.924234 46.1561 1.06823 46.6681 1.35623 47.0441C1.63623 47.4201 2.01623 47.6081 2.49623 47.6081C2.97623 47.6081 3.32823 47.4321 3.55223 47.0801C3.76823 46.7201 3.95623 46.1201 4.11623 45.2801C4.18823 44.8881 4.26023 44.5641 4.33223 44.3081C4.39623 44.0521 4.49623 43.7801 4.63223 43.4921C4.76023 43.2041 4.90823 42.9801 5.07623 42.8201C5.24423 42.6521 5.46023 42.5121 5.72423 42.4001C5.98823 42.2881 6.29623 42.2321 6.64823 42.2321C7.40823 42.2321 8.01623 42.5121 8.47223 43.0721C8.92823 43.6241 9.15623 44.3521 9.15623 45.2561Z" fill="#FFFDF8"/>
<path d="M9.15623 36.7705C9.15623 37.9545 8.74823 38.8945 7.93223 39.5905C7.11623 40.2865 6.04423 40.6345 4.71623 40.6345C3.39623 40.6345 2.32023 40.2825 1.48823 39.5785C0.656234 38.8745 0.240234 37.9265 0.240234 36.7345C0.240234 35.8385 0.472234 35.1025 0.936233 34.5265C1.40023 33.9425 2.03623 33.5785 2.84423 33.4345L2.84423 34.2265C2.26823 34.3465 1.80823 34.6265 1.46423 35.0665C1.11223 35.5065 0.936233 36.0665 0.936233 36.7465C0.936234 37.7145 1.29223 38.4665 2.00423 39.0025C2.70823 39.5305 3.61223 39.7945 4.71623 39.7945C5.82023 39.7945 6.72023 39.5305 7.41623 39.0025C8.10423 38.4665 8.44823 37.7185 8.44823 36.7585C8.44823 35.9665 8.20823 35.3385 7.72823 34.8745C7.24823 34.4105 6.63223 34.1425 5.88023 34.0705L5.88023 33.2905C6.78423 33.3385 7.53223 33.6345 8.12423 34.1785C8.81223 34.7945 9.15623 35.6585 9.15623 36.7705Z" fill="#FFFDF8"/>
<path d="M9.00023 31.4274L0.420233 31.4274L0.420233 25.5954L1.12823 25.5954L1.12823 30.6234L4.21223 30.6234L4.21223 26.0154L4.90823 26.0154L4.90823 30.6234L8.25623 30.6234L8.25623 25.4634L9.00023 25.4634L9.00023 31.4274Z" fill="#FFFDF8"/>
<path d="M9.00023 23.5056L0.420233 23.5056L0.420233 22.6296L6.44423 18.6816C6.63623 18.5536 6.85223 18.4176 7.09223 18.2736C7.32423 18.1296 7.51223 18.0176 7.65623 17.9376L7.86023 17.8296L7.86023 17.8056L0.420233 17.8056L0.420233 17.0376L9.00023 17.0376L9.00023 17.8776L3.04823 21.8136L1.59623 22.7136L1.59623 22.7376L9.00023 22.7376L9.00023 23.5056Z" fill="#FFFDF8"/>
<path d="M9.00023 14.7517L0.420233 14.7517L0.420232 8.91965L1.12823 8.91965L1.12823 13.9477L4.21223 13.9477L4.21223 9.33965L4.90823 9.33965L4.90823 13.9477L8.25623 13.9477L8.25623 8.78765L9.00023 8.78765L9.00023 14.7517Z" fill="#FFFDF8"/>
<path d="M9.00023 4.23909L0.420232 4.23909L0.420232 3.43509L9.00023 3.43509L9.00023 4.23909Z" fill="#FFFDF8"/>
<path d="M9.00023 1.06331L0.420232 1.06331L0.420232 0.259308L9.00023 0.259307L9.00023 1.06331Z" fill="#FFFDF8"/>
</svg>
