<svg width="10" height="46" viewBox="0 0 10 46" fill="none" xmlns="http://www.w3.org/2000/svg">
<path d="M9.15623 42.2561C9.15623 43.3361 8.88823 44.1721 8.35223 44.7641C7.80823 45.3561 7.09623 45.6761 6.21623 45.7241L6.21623 44.9201C6.93623 44.8801 7.49623 44.6281 7.89623 44.1641C8.28823 43.6921 8.48423 43.0521 8.48423 42.2441C8.48423 41.5961 8.32823 41.0681 8.01623 40.6601C7.69623 40.2521 7.25223 40.0481 6.68423 40.0481C6.11623 40.0481 5.71223 40.2401 5.47223 40.6241C5.23223 41.0001 5.01223 41.6881 4.81223 42.6881C4.63623 43.5841 4.38423 44.2601 4.05623 44.7161C3.72823 45.1641 3.21623 45.3881 2.52023 45.3881C1.84023 45.3881 1.29223 45.1241 0.876234 44.5961C0.460234 44.0681 0.252234 43.3761 0.252234 42.5201C0.252234 41.6001 0.480234 40.8881 0.936234 40.3841C1.38423 39.8721 1.99223 39.5761 2.76023 39.4961L2.76023 40.2761C2.16823 40.3481 1.71623 40.5841 1.40423 40.9841C1.08423 41.3761 0.924234 41.8841 0.924234 42.5081C0.924234 43.1561 1.06823 43.6681 1.35623 44.0441C1.63623 44.4201 2.01623 44.6081 2.49623 44.6081C2.97623 44.6081 3.32823 44.4321 3.55223 44.0801C3.76823 43.7201 3.95623 43.1201 4.11623 42.2801C4.18823 41.8881 4.26023 41.5641 4.33223 41.3081C4.39623 41.0521 4.49623 40.7801 4.63223 40.4921C4.76023 40.2041 4.90823 39.9801 5.07623 39.8201C5.24423 39.6521 5.46023 39.5121 5.72423 39.4001C5.98823 39.2881 6.29623 39.2321 6.64823 39.2321C7.40823 39.2321 8.01623 39.5121 8.47223 40.0721C8.92823 40.6241 9.15623 41.3521 9.15623 42.2561Z" fill="#FFFDF8"/>
<path d="M9.15623 33.7705C9.15623 34.9545 8.74823 35.8945 7.93223 36.5905C7.11623 37.2865 6.04423 37.6345 4.71623 37.6345C3.39623 37.6345 2.32023 37.2825 1.48823 36.5785C0.656234 35.8745 0.240234 34.9265 0.240234 33.7345C0.240234 32.8385 0.472234 32.1025 0.936233 31.5265C1.40023 30.9425 2.03623 30.5785 2.84423 30.4345L2.84423 31.2265C2.26823 31.3465 1.80823 31.6265 1.46423 32.0665C1.11223 32.5065 0.936233 33.0665 0.936233 33.7465C0.936234 34.7145 1.29223 35.4665 2.00423 36.0025C2.70823 36.5305 3.61223 36.7945 4.71623 36.7945C5.82023 36.7945 6.72023 36.5305 7.41623 36.0025C8.10423 35.4665 8.44823 34.7185 8.44823 33.7585C8.44823 32.9665 8.20823 32.3385 7.72823 31.8745C7.24823 31.4105 6.63223 31.1425 5.88023 31.0705L5.88023 30.2905C6.78423 30.3385 7.53223 30.6345 8.12423 31.1785C8.81223 31.7945 9.15623 32.6585 9.15623 33.7705Z" fill="#FFFDF8"/>
<path d="M9.00023 28.4274L0.420233 28.4274L0.420233 22.5954L1.12823 22.5954L1.12823 27.6234L4.21223 27.6234L4.21223 23.0154L4.90823 23.0154L4.90823 27.6234L8.25623 27.6234L8.25623 22.4634L9.00023 22.4634L9.00023 28.4274Z" fill="#FFFDF8"/>
<path d="M9.00023 20.5056L0.420233 20.5056L0.420233 19.6296L6.44423 15.6816C6.63623 15.5536 6.85223 15.4176 7.09223 15.2736C7.32423 15.1296 7.51223 15.0176 7.65623 14.9376L7.86023 14.8296L7.86023 14.8056L0.420233 14.8056L0.420233 14.0376L9.00023 14.0376L9.00023 14.8776L3.04823 18.8136L1.59623 19.7136L1.59623 19.7376L9.00023 19.7376L9.00023 20.5056Z" fill="#FFFDF8"/>
<path d="M9.00023 11.7517L0.420233 11.7517L0.420232 5.91965L1.12823 5.91965L1.12823 10.9477L4.21223 10.9477L4.21223 6.33965L4.90823 6.33965L4.90823 10.9477L8.25623 10.9477L8.25623 5.78765L9.00023 5.78765L9.00023 11.7517Z" fill="#FFFDF8"/>
<path d="M9.00023 1.23909L0.420232 1.23909L0.420232 0.435089L9.00023 0.435089L9.00023 1.23909Z" fill="#FFFDF8"/>
</svg>
