<svg width="10" height="60" viewBox="0 0 10 60" fill="none" xmlns="http://www.w3.org/2000/svg">
<path d="M9.15623 56.2561C9.15623 57.3361 8.88823 58.1721 8.35223 58.7641C7.80823 59.3561 7.09623 59.6761 6.21623 59.7241L6.21623 58.9201C6.93623 58.8801 7.49623 58.6281 7.89623 58.1641C8.28823 57.6921 8.48423 57.0521 8.48423 56.2441C8.48423 55.5961 8.32823 55.0681 8.01623 54.6601C7.69623 54.2521 7.25223 54.0481 6.68423 54.0481C6.11623 54.0481 5.71223 54.2401 5.47223 54.6241C5.23223 55.0001 5.01223 55.6881 4.81223 56.6881C4.63623 57.5841 4.38423 58.2601 4.05623 58.7161C3.72823 59.1641 3.21623 59.3881 2.52023 59.3881C1.84023 59.3881 1.29223 59.1241 0.876234 58.5961C0.460234 58.0681 0.252234 57.3761 0.252234 56.5201C0.252234 55.6001 0.480234 54.8881 0.936234 54.3841C1.38423 53.8721 1.99223 53.5761 2.76023 53.4961L2.76023 54.2761C2.16823 54.3481 1.71623 54.5841 1.40423 54.9841C1.08423 55.3761 0.924234 55.8841 0.924234 56.5081C0.924234 57.1561 1.06823 57.6681 1.35623 58.0441C1.63623 58.4201 2.01623 58.6081 2.49623 58.6081C2.97623 58.6081 3.32823 58.4321 3.55223 58.0801C3.76823 57.7201 3.95623 57.1201 4.11623 56.2801C4.18823 55.8881 4.26023 55.5641 4.33223 55.3081C4.39623 55.0521 4.49623 54.7801 4.63223 54.4921C4.76023 54.2041 4.90823 53.9801 5.07623 53.8201C5.24423 53.6521 5.46023 53.5121 5.72423 53.4001C5.98823 53.2881 6.29623 53.2321 6.64823 53.2321C7.40823 53.2321 8.01623 53.5121 8.47223 54.0721C8.92823 54.6241 9.15623 55.3521 9.15623 56.2561Z" fill="#FFFDF8"/>
<path d="M9.15623 47.7705C9.15623 48.9545 8.74823 49.8945 7.93223 50.5905C7.11623 51.2865 6.04423 51.6345 4.71623 51.6345C3.39623 51.6345 2.32023 51.2825 1.48823 50.5785C0.656234 49.8745 0.240234 48.9265 0.240234 47.7345C0.240234 46.8385 0.472234 46.1025 0.936233 45.5265C1.40023 44.9425 2.03623 44.5785 2.84423 44.4345L2.84423 45.2265C2.26823 45.3465 1.80823 45.6265 1.46423 46.0665C1.11223 46.5065 0.936233 47.0665 0.936233 47.7465C0.936234 48.7145 1.29223 49.4665 2.00423 50.0025C2.70823 50.5305 3.61223 50.7945 4.71623 50.7945C5.82023 50.7945 6.72023 50.5305 7.41623 50.0025C8.10423 49.4665 8.44823 48.7185 8.44823 47.7585C8.44823 46.9665 8.20823 46.3385 7.72823 45.8745C7.24823 45.4105 6.63223 45.1425 5.88023 45.0705L5.88023 44.2905C6.78423 44.3385 7.53223 44.6345 8.12423 45.1785C8.81223 45.7945 9.15623 46.6585 9.15623 47.7705Z" fill="#FFFDF8"/>
<path d="M9.00023 42.4274L0.420233 42.4274L0.420233 36.5954L1.12823 36.5954L1.12823 41.6234L4.21223 41.6234L4.21223 37.0154L4.90823 37.0154L4.90823 41.6234L8.25623 41.6234L8.25623 36.4634L9.00023 36.4634L9.00023 42.4274Z" fill="#FFFDF8"/>
<path d="M9.00023 34.5056L0.420233 34.5056L0.420233 33.6296L6.44423 29.6816C6.63623 29.5536 6.85223 29.4176 7.09223 29.2736C7.32423 29.1296 7.51223 29.0176 7.65623 28.9376L7.86023 28.8296L7.86023 28.8056L0.420233 28.8056L0.420233 28.0376L9.00023 28.0376L9.00023 28.8776L3.04823 32.8136L1.59623 33.7136L1.59623 33.7376L9.00023 33.7376L9.00023 34.5056Z" fill="#FFFDF8"/>
<path d="M9.00023 25.7517L0.420233 25.7517L0.420232 19.9197L1.12823 19.9197L1.12823 24.9477L4.21223 24.9477L4.21223 20.3397L4.90823 20.3397L4.90823 24.9477L8.25623 24.9477L8.25623 19.7877L9.00023 19.7877L9.00023 25.7517Z" fill="#FFFDF8"/>
<path d="M9.00023 12.8751L0.420232 15.9471L0.420232 15.1071L6.75623 12.8871L8.17223 12.4311L8.17223 12.4071C7.55623 12.2231 7.07223 12.0671 6.72023 11.9391L0.420232 9.70709L0.420232 8.89109L9.00023 11.9991L9.00023 12.8751Z" fill="#FFFDF8"/>
<path d="M9.00023 7.2469L0.420232 7.2469L0.420232 6.4429L9.00023 6.4429L9.00023 7.2469Z" fill="#FFFDF8"/>
<path d="M9.00023 4.07112L0.420232 4.07112L0.420232 3.26712L9.00023 3.26712L9.00023 4.07112Z" fill="#FFFDF8"/>
<path d="M9.00023 0.89534L0.420232 0.89534L0.420232 0.0913391L9.00023 0.0913387L9.00023 0.89534Z" fill="#FFFDF8"/>
</svg>
