<svg width="10" height="55" viewBox="0 0 10 55" fill="none" xmlns="http://www.w3.org/2000/svg">
<path d="M9.15623 51.2561C9.15623 52.3361 8.88823 53.1721 8.35223 53.7641C7.80823 54.3561 7.09623 54.6761 6.21623 54.7241L6.21623 53.9201C6.93623 53.8801 7.49623 53.6281 7.89623 53.1641C8.28823 52.6921 8.48423 52.0521 8.48423 51.2441C8.48423 50.5961 8.32823 50.0681 8.01623 49.6601C7.69623 49.2521 7.25223 49.0481 6.68423 49.0481C6.11623 49.0481 5.71223 49.2401 5.47223 49.6241C5.23223 50.0001 5.01223 50.6881 4.81223 51.6881C4.63623 52.5841 4.38423 53.2601 4.05623 53.7161C3.72823 54.1641 3.21623 54.3881 2.52023 54.3881C1.84023 54.3881 1.29223 54.1241 0.876234 53.5961C0.460234 53.0681 0.252234 52.3761 0.252234 51.5201C0.252234 50.6001 0.480234 49.8881 0.936234 49.3841C1.38423 48.8721 1.99223 48.5761 2.76023 48.4961L2.76023 49.2761C2.16823 49.3481 1.71623 49.5841 1.40423 49.9841C1.08423 50.3761 0.924234 50.8841 0.924234 51.5081C0.924234 52.1561 1.06823 52.6681 1.35623 53.0441C1.63623 53.4201 2.01623 53.6081 2.49623 53.6081C2.97623 53.6081 3.32823 53.4321 3.55223 53.0801C3.76823 52.7201 3.95623 52.1201 4.11623 51.2801C4.18823 50.8881 4.26023 50.5641 4.33223 50.3081C4.39623 50.0521 4.49623 49.7801 4.63223 49.4921C4.76023 49.2041 4.90823 48.9801 5.07623 48.8201C5.24423 48.6521 5.46023 48.5121 5.72423 48.4001C5.98823 48.2881 6.29623 48.2321 6.64823 48.2321C7.40823 48.2321 8.01623 48.5121 8.47223 49.0721C8.92823 49.6241 9.15623 50.3521 9.15623 51.2561Z" fill="#FFFDF8"/>
<path d="M9.15623 42.7705C9.15623 43.9545 8.74823 44.8945 7.93223 45.5905C7.11623 46.2865 6.04423 46.6345 4.71623 46.6345C3.39623 46.6345 2.32023 46.2825 1.48823 45.5785C0.656234 44.8745 0.240234 43.9265 0.240234 42.7345C0.240234 41.8385 0.472234 41.1025 0.936233 40.5265C1.40023 39.9425 2.03623 39.5785 2.84423 39.4345L2.84423 40.2265C2.26823 40.3465 1.80823 40.6265 1.46423 41.0665C1.11223 41.5065 0.936233 42.0665 0.936233 42.7465C0.936234 43.7145 1.29223 44.4665 2.00423 45.0025C2.70823 45.5305 3.61223 45.7945 4.71623 45.7945C5.82023 45.7945 6.72023 45.5305 7.41623 45.0025C8.10423 44.4665 8.44823 43.7185 8.44823 42.7585C8.44823 41.9665 8.20823 41.3385 7.72823 40.8745C7.24823 40.4105 6.63223 40.1425 5.88023 40.0705L5.88023 39.2905C6.78423 39.3385 7.53223 39.6345 8.12423 40.1785C8.81223 40.7945 9.15623 41.6585 9.15623 42.7705Z" fill="#FFFDF8"/>
<path d="M9.00023 37.4274L0.420233 37.4274L0.420233 31.5954L1.12823 31.5954L1.12823 36.6234L4.21223 36.6234L4.21223 32.0154L4.90823 32.0154L4.90823 36.6234L8.25623 36.6234L8.25623 31.4634L9.00023 31.4634L9.00023 37.4274Z" fill="#FFFDF8"/>
<path d="M9.00023 29.5056L0.420233 29.5056L0.420233 28.6296L6.44423 24.6816C6.63623 24.5536 6.85223 24.4176 7.09223 24.2736C7.32423 24.1296 7.51223 24.0176 7.65623 23.9376L7.86023 23.8296L7.86023 23.8056L0.420233 23.8056L0.420233 23.0376L9.00023 23.0376L9.00023 23.8776L3.04823 27.8136L1.59623 28.7136L1.59623 28.7376L9.00023 28.7376L9.00023 29.5056Z" fill="#FFFDF8"/>
<path d="M9.00023 20.7517L0.420233 20.7517L0.420232 14.9197L1.12823 14.9197L1.12823 19.9477L4.21223 19.9477L4.21223 15.3397L4.90823 15.3397L4.90823 19.9477L8.25623 19.9477L8.25623 14.7877L9.00023 14.7877L9.00023 20.7517Z" fill="#FFFDF8"/>
<path d="M9.00023 10.2391L0.420232 10.2391L0.420232 9.43509L9.00023 9.43509L9.00023 10.2391Z" fill="#FFFDF8"/>
<path d="M9.00023 7.72331L4.62023 4.77131L0.420232 7.55531L0.420232 6.63131L4.04423 4.29131L4.04423 4.26731L0.420232 1.95131L0.420232 1.06331L4.63223 3.83531L9.00023 0.931308L9.00023 1.87931L5.20823 4.31531L5.20823 4.33931L9.00023 6.81131L9.00023 7.72331Z" fill="#FFFDF8"/>
</svg>
