<svg width="10" height="54" viewBox="0 0 10 54" fill="none" xmlns="http://www.w3.org/2000/svg">
<path d="M9.15623 50.2561C9.15623 51.3361 8.88823 52.1721 8.35223 52.7641C7.80823 53.3561 7.09623 53.6761 6.21623 53.7241L6.21623 52.9201C6.93623 52.8801 7.49623 52.6281 7.89623 52.1641C8.28823 51.6921 8.48423 51.0521 8.48423 50.2441C8.48423 49.5961 8.32823 49.0681 8.01623 48.6601C7.69623 48.2521 7.25223 48.0481 6.68423 48.0481C6.11623 48.0481 5.71223 48.2401 5.47223 48.6241C5.23223 49.0001 5.01223 49.6881 4.81223 50.6881C4.63623 51.5841 4.38423 52.2601 4.05623 52.7161C3.72823 53.1641 3.21623 53.3881 2.52023 53.3881C1.84023 53.3881 1.29223 53.1241 0.876234 52.5961C0.460234 52.0681 0.252234 51.3761 0.252234 50.5201C0.252234 49.6001 0.480234 48.8881 0.936234 48.3841C1.38423 47.8721 1.99223 47.5761 2.76023 47.4961L2.76023 48.2761C2.16823 48.3481 1.71623 48.5841 1.40423 48.9841C1.08423 49.3761 0.924234 49.8841 0.924234 50.5081C0.924234 51.1561 1.06823 51.6681 1.35623 52.0441C1.63623 52.4201 2.01623 52.6081 2.49623 52.6081C2.97623 52.6081 3.32823 52.4321 3.55223 52.0801C3.76823 51.7201 3.95623 51.1201 4.11623 50.2801C4.18823 49.8881 4.26023 49.5641 4.33223 49.3081C4.39623 49.0521 4.49623 48.7801 4.63223 48.4921C4.76023 48.2041 4.90823 47.9801 5.07623 47.8201C5.24423 47.6521 5.46023 47.5121 5.72423 47.4001C5.98823 47.2881 6.29623 47.2321 6.64823 47.2321C7.40823 47.2321 8.01623 47.5121 8.47223 48.0721C8.92823 48.6241 9.15623 49.3521 9.15623 50.2561Z" fill="#FFFDF8"/>
<path d="M9.15623 41.7705C9.15623 42.9545 8.74823 43.8945 7.93223 44.5905C7.11623 45.2865 6.04423 45.6345 4.71623 45.6345C3.39623 45.6345 2.32023 45.2825 1.48823 44.5785C0.656234 43.8745 0.240234 42.9265 0.240234 41.7345C0.240234 40.8385 0.472234 40.1025 0.936233 39.5265C1.40023 38.9425 2.03623 38.5785 2.84423 38.4345L2.84423 39.2265C2.26823 39.3465 1.80823 39.6265 1.46423 40.0665C1.11223 40.5065 0.936233 41.0665 0.936233 41.7465C0.936234 42.7145 1.29223 43.4665 2.00423 44.0025C2.70823 44.5305 3.61223 44.7945 4.71623 44.7945C5.82023 44.7945 6.72023 44.5305 7.41623 44.0025C8.10423 43.4665 8.44823 42.7185 8.44823 41.7585C8.44823 40.9665 8.20823 40.3385 7.72823 39.8745C7.24823 39.4105 6.63223 39.1425 5.88023 39.0705L5.88023 38.2905C6.78423 38.3385 7.53223 38.6345 8.12423 39.1785C8.81223 39.7945 9.15623 40.6585 9.15623 41.7705Z" fill="#FFFDF8"/>
<path d="M9.00023 36.4274L0.420233 36.4274L0.420233 30.5954L1.12823 30.5954L1.12823 35.6234L4.21223 35.6234L4.21223 31.0154L4.90823 31.0154L4.90823 35.6234L8.25623 35.6234L8.25623 30.4634L9.00023 30.4634L9.00023 36.4274Z" fill="#FFFDF8"/>
<path d="M9.00023 28.5056L0.420233 28.5056L0.420233 27.6296L6.44423 23.6816C6.63623 23.5536 6.85223 23.4176 7.09223 23.2736C7.32423 23.1296 7.51223 23.0176 7.65623 22.9376L7.86023 22.8296L7.86023 22.8056L0.420233 22.8056L0.420233 22.0376L9.00023 22.0376L9.00023 22.8776L3.04823 26.8136L1.59623 27.7136L1.59623 27.7376L9.00023 27.7376L9.00023 28.5056Z" fill="#FFFDF8"/>
<path d="M9.00023 19.7517L0.420233 19.7517L0.420232 13.9197L1.12823 13.9197L1.12823 18.9477L4.21223 18.9477L4.21223 14.3397L4.90823 14.3397L4.90823 18.9477L8.25623 18.9477L8.25623 13.7877L9.00023 13.7877L9.00023 19.7517Z" fill="#FFFDF8"/>
<path d="M9.00023 6.87509L0.420232 9.94709L0.420232 9.10709L6.75623 6.88709L8.17223 6.43109L8.17223 6.40709C7.55623 6.22309 7.07223 6.06709 6.72023 5.93909L0.420232 3.70709L0.420232 2.89109L9.00023 5.99909L9.00023 6.87509Z" fill="#FFFDF8"/>
<path d="M9.00023 1.2469L0.420232 1.2469L0.420232 0.442902L9.00023 0.442901L9.00023 1.2469Z" fill="#FFFDF8"/>
</svg>
