<svg width="10" height="57" viewBox="0 0 10 57" fill="none" xmlns="http://www.w3.org/2000/svg">
<path d="M9.15623 53.2561C9.15623 54.3361 8.88823 55.1721 8.35223 55.7641C7.80823 56.3561 7.09623 56.6761 6.21623 56.7241L6.21623 55.9201C6.93623 55.8801 7.49623 55.6281 7.89623 55.1641C8.28823 54.6921 8.48423 54.0521 8.48423 53.2441C8.48423 52.5961 8.32823 52.0681 8.01623 51.6601C7.69623 51.2521 7.25223 51.0481 6.68423 51.0481C6.11623 51.0481 5.71223 51.2401 5.47223 51.6241C5.23223 52.0001 5.01223 52.6881 4.81223 53.6881C4.63623 54.5841 4.38423 55.2601 4.05623 55.7161C3.72823 56.1641 3.21623 56.3881 2.52023 56.3881C1.84023 56.3881 1.29223 56.1241 0.876234 55.5961C0.460234 55.0681 0.252234 54.3761 0.252234 53.5201C0.252234 52.6001 0.480234 51.8881 0.936234 51.3841C1.38423 50.8721 1.99223 50.5761 2.76023 50.4961L2.76023 51.2761C2.16823 51.3481 1.71623 51.5841 1.40423 51.9841C1.08423 52.3761 0.924234 52.8841 0.924234 53.5081C0.924234 54.1561 1.06823 54.6681 1.35623 55.0441C1.63623 55.4201 2.01623 55.6081 2.49623 55.6081C2.97623 55.6081 3.32823 55.4321 3.55223 55.0801C3.76823 54.7201 3.95623 54.1201 4.11623 53.2801C4.18823 52.8881 4.26023 52.5641 4.33223 52.3081C4.39623 52.0521 4.49623 51.7801 4.63223 51.4921C4.76023 51.2041 4.90823 50.9801 5.07623 50.8201C5.24423 50.6521 5.46023 50.5121 5.72423 50.4001C5.98823 50.2881 6.29623 50.2321 6.64823 50.2321C7.40823 50.2321 8.01623 50.5121 8.47223 51.0721C8.92823 51.6241 9.15623 52.3521 9.15623 53.2561Z" fill="#FFFDF8"/>
<path d="M9.15623 44.7705C9.15623 45.9545 8.74823 46.8945 7.93223 47.5905C7.11623 48.2865 6.04423 48.6345 4.71623 48.6345C3.39623 48.6345 2.32023 48.2825 1.48823 47.5785C0.656234 46.8745 0.240234 45.9265 0.240234 44.7345C0.240234 43.8385 0.472234 43.1025 0.936233 42.5265C1.40023 41.9425 2.03623 41.5785 2.84423 41.4345L2.84423 42.2265C2.26823 42.3465 1.80823 42.6265 1.46423 43.0665C1.11223 43.5065 0.936233 44.0665 0.936233 44.7465C0.936234 45.7145 1.29223 46.4665 2.00423 47.0025C2.70823 47.5305 3.61223 47.7945 4.71623 47.7945C5.82023 47.7945 6.72023 47.5305 7.41623 47.0025C8.10423 46.4665 8.44823 45.7185 8.44823 44.7585C8.44823 43.9665 8.20823 43.3385 7.72823 42.8745C7.24823 42.4105 6.63223 42.1425 5.88023 42.0705L5.88023 41.2905C6.78423 41.3385 7.53223 41.6345 8.12423 42.1785C8.81223 42.7945 9.15623 43.6585 9.15623 44.7705Z" fill="#FFFDF8"/>
<path d="M9.00023 39.4274L0.420233 39.4274L0.420233 33.5954L1.12823 33.5954L1.12823 38.6234L4.21223 38.6234L4.21223 34.0154L4.90823 34.0154L4.90823 38.6234L8.25623 38.6234L8.25623 33.4634L9.00023 33.4634L9.00023 39.4274Z" fill="#FFFDF8"/>
<path d="M9.00023 31.5056L0.420233 31.5056L0.420233 30.6296L6.44423 26.6816C6.63623 26.5536 6.85223 26.4176 7.09223 26.2736C7.32423 26.1296 7.51223 26.0176 7.65623 25.9376L7.86023 25.8296L7.86023 25.8056L0.420233 25.8056L0.420233 25.0376L9.00023 25.0376L9.00023 25.8776L3.04823 29.8136L1.59623 30.7136L1.59623 30.7376L9.00023 30.7376L9.00023 31.5056Z" fill="#FFFDF8"/>
<path d="M9.00023 22.7517L0.420233 22.7517L0.420232 16.9197L1.12823 16.9197L1.12823 21.9477L4.21223 21.9477L4.21223 17.3397L4.90823 17.3397L4.90823 21.9477L8.25623 21.9477L8.25623 16.7877L9.00023 16.7877L9.00023 22.7517Z" fill="#FFFDF8"/>
<path d="M9.00023 12.8991L4.62023 9.94709L0.420232 12.7311L0.420232 11.8071L4.04423 9.46709L4.04423 9.44309L0.420232 7.12709L0.420232 6.23909L4.63223 9.01109L9.00023 6.10709L9.00023 7.05509L5.20823 9.49109L5.20823 9.51509L9.00023 11.9871L9.00023 12.8991Z" fill="#FFFDF8"/>
<path d="M9.00023 4.41096L0.420232 4.41096L0.420232 3.60696L9.00023 3.60696L9.00023 4.41096Z" fill="#FFFDF8"/>
<path d="M9.00023 1.23518L0.420232 1.23518L0.420232 0.431183L9.00023 0.431182L9.00023 1.23518Z" fill="#FFFDF8"/>
</svg>
