<svg width="10" height="52" viewBox="0 0 10 52" fill="none" xmlns="http://www.w3.org/2000/svg">
<path d="M9.15623 48.2561C9.15623 49.3361 8.88823 50.1721 8.35223 50.7641C7.80823 51.3561 7.09623 51.6761 6.21623 51.7241L6.21623 50.9201C6.93623 50.8801 7.49623 50.6281 7.89623 50.1641C8.28823 49.6921 8.48423 49.0521 8.48423 48.2441C8.48423 47.5961 8.32823 47.0681 8.01623 46.6601C7.69623 46.2521 7.25223 46.0481 6.68423 46.0481C6.11623 46.0481 5.71223 46.2401 5.47223 46.6241C5.23223 47.0001 5.01223 47.6881 4.81223 48.6881C4.63623 49.5841 4.38423 50.2601 4.05623 50.7161C3.72823 51.1641 3.21623 51.3881 2.52023 51.3881C1.84023 51.3881 1.29223 51.1241 0.876234 50.5961C0.460234 50.0681 0.252234 49.3761 0.252234 48.5201C0.252234 47.6001 0.480234 46.8881 0.936234 46.3841C1.38423 45.8721 1.99223 45.5761 2.76023 45.4961L2.76023 46.2761C2.16823 46.3481 1.71623 46.5841 1.40423 46.9841C1.08423 47.3761 0.924234 47.8841 0.924234 48.5081C0.924234 49.1561 1.06823 49.6681 1.35623 50.0441C1.63623 50.4201 2.01623 50.6081 2.49623 50.6081C2.97623 50.6081 3.32823 50.4321 3.55223 50.0801C3.76823 49.7201 3.95623 49.1201 4.11623 48.2801C4.18823 47.8881 4.26023 47.5641 4.33223 47.3081C4.39623 47.0521 4.49623 46.7801 4.63223 46.4921C4.76023 46.2041 4.90823 45.9801 5.07623 45.8201C5.24423 45.6521 5.46023 45.5121 5.72423 45.4001C5.98823 45.2881 6.29623 45.2321 6.64823 45.2321C7.40823 45.2321 8.01623 45.5121 8.47223 46.0721C8.92823 46.6241 9.15623 47.3521 9.15623 48.2561Z" fill="#FFFDF8"/>
<path d="M9.15623 39.7705C9.15623 40.9545 8.74823 41.8945 7.93223 42.5905C7.11623 43.2865 6.04423 43.6345 4.71623 43.6345C3.39623 43.6345 2.32023 43.2825 1.48823 42.5785C0.656234 41.8745 0.240234 40.9265 0.240234 39.7345C0.240234 38.8385 0.472234 38.1025 0.936233 37.5265C1.40023 36.9425 2.03623 36.5785 2.84423 36.4345L2.84423 37.2265C2.26823 37.3465 1.80823 37.6265 1.46423 38.0665C1.11223 38.5065 0.936233 39.0665 0.936233 39.7465C0.936234 40.7145 1.29223 41.4665 2.00423 42.0025C2.70823 42.5305 3.61223 42.7945 4.71623 42.7945C5.82023 42.7945 6.72023 42.5305 7.41623 42.0025C8.10423 41.4665 8.44823 40.7185 8.44823 39.7585C8.44823 38.9665 8.20823 38.3385 7.72823 37.8745C7.24823 37.4105 6.63223 37.1425 5.88023 37.0705L5.88023 36.2905C6.78423 36.3385 7.53223 36.6345 8.12423 37.1785C8.81223 37.7945 9.15623 38.6585 9.15623 39.7705Z" fill="#FFFDF8"/>
<path d="M9.00023 34.4274L0.420233 34.4274L0.420233 28.5954L1.12823 28.5954L1.12823 33.6234L4.21223 33.6234L4.21223 29.0154L4.90823 29.0154L4.90823 33.6234L8.25623 33.6234L8.25623 28.4634L9.00023 28.4634L9.00023 34.4274Z" fill="#FFFDF8"/>
<path d="M9.00023 26.5056L0.420233 26.5056L0.420233 25.6296L6.44423 21.6816C6.63623 21.5536 6.85223 21.4176 7.09223 21.2736C7.32423 21.1296 7.51223 21.0176 7.65623 20.9376L7.86023 20.8296L7.86023 20.8056L0.420233 20.8056L0.420233 20.0376L9.00023 20.0376L9.00023 20.8776L3.04823 24.8136L1.59623 25.7136L1.59623 25.7376L9.00023 25.7376L9.00023 26.5056Z" fill="#FFFDF8"/>
<path d="M9.00023 17.7517L0.420233 17.7517L0.420232 11.9197L1.12823 11.9197L1.12823 16.9477L4.21223 16.9477L4.21223 12.3397L4.90823 12.3397L4.90823 16.9477L8.25623 16.9477L8.25623 11.7877L9.00023 11.7877L9.00023 17.7517Z" fill="#FFFDF8"/>
<path d="M9.00023 4.87509L0.420232 7.94709L0.420232 7.10709L6.75623 4.88709L8.17223 4.43109L8.17223 4.40709C7.55623 4.22309 7.07223 4.06709 6.72023 3.93909L0.420232 1.70709L0.420232 0.89109L9.00023 3.99909L9.00023 4.87509Z" fill="#FFFDF8"/>
</svg>
