<svg width="10" height="51" viewBox="0 0 10 51" fill="none" xmlns="http://www.w3.org/2000/svg">
<path d="M9.15623 47.2561C9.15623 48.3361 8.88823 49.1721 8.35223 49.7641C7.80823 50.3561 7.09623 50.6761 6.21623 50.7241L6.21623 49.9201C6.93623 49.8801 7.49623 49.6281 7.89623 49.1641C8.28823 48.6921 8.48423 48.0521 8.48423 47.2441C8.48423 46.5961 8.32823 46.0681 8.01623 45.6601C7.69623 45.2521 7.25223 45.0481 6.68423 45.0481C6.11623 45.0481 5.71223 45.2401 5.47223 45.6241C5.23223 46.0001 5.01223 46.6881 4.81223 47.6881C4.63623 48.5841 4.38423 49.2601 4.05623 49.7161C3.72823 50.1641 3.21623 50.3881 2.52023 50.3881C1.84023 50.3881 1.29223 50.1241 0.876234 49.5961C0.460234 49.0681 0.252234 48.3761 0.252234 47.5201C0.252234 46.6001 0.480234 45.8881 0.936234 45.3841C1.38423 44.8721 1.99223 44.5761 2.76023 44.4961L2.76023 45.2761C2.16823 45.3481 1.71623 45.5841 1.40423 45.9841C1.08423 46.3761 0.924234 46.8841 0.924234 47.5081C0.924234 48.1561 1.06823 48.6681 1.35623 49.0441C1.63623 49.4201 2.01623 49.6081 2.49623 49.6081C2.97623 49.6081 3.32823 49.4321 3.55223 49.0801C3.76823 48.7201 3.95623 48.1201 4.11623 47.2801C4.18823 46.8881 4.26023 46.5641 4.33223 46.3081C4.39623 46.0521 4.49623 45.7801 4.63223 45.4921C4.76023 45.2041 4.90823 44.9801 5.07623 44.8201C5.24423 44.6521 5.46023 44.5121 5.72423 44.4001C5.98823 44.2881 6.29623 44.2321 6.64823 44.2321C7.40823 44.2321 8.01623 44.5121 8.47223 45.0721C8.92823 45.6241 9.15623 46.3521 9.15623 47.2561Z" fill="#FFFDF8"/>
<path d="M9.15623 38.7705C9.15623 39.9545 8.74823 40.8945 7.93223 41.5905C7.11623 42.2865 6.04423 42.6345 4.71623 42.6345C3.39623 42.6345 2.32023 42.2825 1.48823 41.5785C0.656234 40.8745 0.240234 39.9265 0.240234 38.7345C0.240234 37.8385 0.472234 37.1025 0.936233 36.5265C1.40023 35.9425 2.03623 35.5785 2.84423 35.4345L2.84423 36.2265C2.26823 36.3465 1.80823 36.6265 1.46423 37.0665C1.11223 37.5065 0.936233 38.0665 0.936233 38.7465C0.936234 39.7145 1.29223 40.4665 2.00423 41.0025C2.70823 41.5305 3.61223 41.7945 4.71623 41.7945C5.82023 41.7945 6.72023 41.5305 7.41623 41.0025C8.10423 40.4665 8.44823 39.7185 8.44823 38.7585C8.44823 37.9665 8.20823 37.3385 7.72823 36.8745C7.24823 36.4105 6.63223 36.1425 5.88023 36.0705L5.88023 35.2905C6.78423 35.3385 7.53223 35.6345 8.12423 36.1785C8.81223 36.7945 9.15623 37.6585 9.15623 38.7705Z" fill="#FFFDF8"/>
<path d="M9.00023 33.4274L0.420233 33.4274L0.420233 27.5954L1.12823 27.5954L1.12823 32.6234L4.21223 32.6234L4.21223 28.0154L4.90823 28.0154L4.90823 32.6234L8.25623 32.6234L8.25623 27.4634L9.00023 27.4634L9.00023 33.4274Z" fill="#FFFDF8"/>
<path d="M9.00023 25.5056L0.420233 25.5056L0.420233 24.6296L6.44423 20.6816C6.63623 20.5536 6.85223 20.4176 7.09223 20.2736C7.32423 20.1296 7.51223 20.0176 7.65623 19.9376L7.86023 19.8296L7.86023 19.8056L0.420233 19.8056L0.420233 19.0376L9.00023 19.0376L9.00023 19.8776L3.04823 23.8136L1.59623 24.7136L1.59623 24.7376L9.00023 24.7376L9.00023 25.5056Z" fill="#FFFDF8"/>
<path d="M9.00023 16.7517L0.420233 16.7517L0.420232 10.9197L1.12823 10.9197L1.12823 15.9477L4.21223 15.9477L4.21223 11.3397L4.90823 11.3397L4.90823 15.9477L8.25623 15.9477L8.25623 10.7877L9.00023 10.7877L9.00023 16.7517Z" fill="#FFFDF8"/>
<path d="M9.00023 6.89909L4.62023 3.94709L0.420232 6.73109L0.420232 5.80709L4.04423 3.46709L4.04423 3.44309L0.420232 1.12709L0.420232 0.23909L4.63223 3.01109L9.00023 0.10709L9.00023 1.05509L5.20823 3.49109L5.20823 3.51509L9.00023 5.98709L9.00023 6.89909Z" fill="#FFFDF8"/>
</svg>
